<svg xmlns="http://www.w3.org/2000/svg" xmlns:xlink="http://www.w3.org/1999/xlink" viewBox="0 0 500 320.3"><defs><style>.cls-1,.cls-12{isolation:isolate;}.cls-2{fill:#f5e9ff;}.cls-3{fill:#e5d7ff;}.cls-13,.cls-4{fill:#a52ce5;}.cls-14,.cls-5{fill:#320a44;}.cls-6{fill:#4a0884;}.cls-11,.cls-7{fill:#fff;}.cls-7{opacity:0.05;}.cls-7,.cls-8,.cls-9{mix-blend-mode:overlay;}.cls-8{fill:url(#linear-gradient);}.cls-9{fill:url(#linear-gradient-2);}.cls-10{fill:#490a0a;}.cls-12{opacity:0.25;}.cls-13,.cls-14,.cls-15,.cls-16{fill-rule:evenodd;}.cls-15,.cls-19{fill:#ffa683;}.cls-16,.cls-21{fill:#ef7f5e;}.cls-17{fill:#140022;}.cls-18{fill:#321234;}.cls-20{fill:#09256b;}.cls-22{fill:#cb99ff;}.cls-23{fill:#052575;}</style><linearGradient id="linear-gradient" x1="299.33" y1="94.79" x2="345.36" y2="52.07" gradientTransform="translate(64.17 -138.99) rotate(28.34)" gradientUnits="userSpaceOnUse"><stop offset="0" stop-color="#fff"/><stop offset="1" stop-color="#fff" stop-opacity="0"/></linearGradient><linearGradient id="linear-gradient-2" x1="310.17" y1="106.48" x2="356.21" y2="63.77" xlink:href="#linear-gradient"/></defs><g class="cls-1"><g id="OBJECTS"><path class="cls-2" d="M113.67,275.87H389.73c27,0,50.5-19.66,54.18-46.45.08-.63.16-1.26.23-1.9,1.2-11.63-1.18-23.14-10.63-32-30.26-28.36,12-64.92,5.67-90.13S410.82,94.67,369.85,55,335.27-6.87,264.07,41.83c-57.15,39.07-125.64-4.41-159.68,12.6S104.5,121.77,62.9,176c-26.24,34.2-6.58,65.13,11.51,83.31A57.89,57.89,0,0,0,95.28,272.7,52.79,52.79,0,0,0,113.67,275.87Z"/><path class="cls-3" d="M439.18,105.38c-6.3-25.21-28.36-10.71-69.33-50.42C342,27.93,336,9.05,312.59,15.12c18.71,6.54,24,12.47,29.21,24.61,29.83,69.75-31.93,139.92,10.09,171.43,23.14,17.36-25,42.74-68.78,64.71H389.73c27,0,50.5-19.66,54.18-46.45.08-.63.16-1.26.23-1.9,1.2-11.63-1.18-23.14-10.63-32C403.25,167.15,445.48,130.59,439.18,105.38Z"/><polygon class="cls-4" points="200.34 46.83 148.5 35.63 167.77 73.18 180.47 63.13 185.52 71.84 187.14 56.12 200.34 46.83"/><polygon class="cls-5" points="185.7 55.36 187.14 56.12 185.52 71.84 180.47 63.13 148.5 35.63 185.7 55.36"/><polygon class="cls-6" points="174.79 67.62 185.52 71.85 180.47 63.12 174.79 67.62"/><path class="cls-5" d="M189.05,73.64c-.46-.45-.91-.93-1.33-1.41l.36-.32c.41.48.85.94,1.31,1.39Z"/><path class="cls-5" d="M325.32,152.75c-1.27-.07-2.55-.18-3.82-.32l.05-.48c1.26.14,2.54.25,3.8.32Zm-7.62-.84c-1.25-.2-2.52-.44-3.77-.7l.1-.48c1.24.27,2.5.5,3.75.7Zm-7.5-1.59c-1.24-.32-2.48-.68-3.69-1l.14-.47c1.21.38,2.44.73,3.67,1.06ZM302.88,148c-1.19-.44-2.39-.91-3.57-1.4l.18-.45c1.17.49,2.37,1,3.56,1.39Zm-7.07-3c-1.16-.55-2.31-1.13-3.43-1.72l.23-.43c1.11.59,2.25,1.17,3.4,1.71Zm-6.78-3.6c-1.09-.65-2.19-1.33-3.25-2l.26-.4c1.06.69,2.15,1.37,3.24,2Zm-6.41-4.2c-1-.74-2.06-1.52-3.05-2.32l.3-.37c1,.79,2,1.56,3,2.3Zm-6-4.77c-1-.84-1.91-1.72-2.82-2.6l.33-.34c.91.87,1.86,1.74,2.81,2.57Zm-5.52-5.32c-.87-.92-1.73-1.88-2.56-2.85l.36-.32c.83,1,1.68,1.92,2.55,2.84Zm-5-5.83c-.78-1-1.54-2-2.26-3.09l.39-.27c.72,1,1.48,2.06,2.26,3.07Zm-4.37-6.29-.48-.78c-.52-.86-1-1.71-1.47-2.53l.43-.23c.45.81.94,1.66,1.45,2.51l.48.77Zm-3.7-6.73c-.56-1.18-1.07-2.36-1.51-3.52l.45-.18c.44,1.15.95,2.33,1.5,3.5Zm-2.75-7.16c-.36-1.25-.67-2.51-.9-3.74l.47-.09c.23,1.22.53,2.46.89,3.69Zm2.77-7,0-.48a17.41,17.41,0,0,0,3.73-.51l.12.47A18.27,18.27,0,0,1,258.06,94.18Zm-3.85-.11a30,30,0,0,1-3.81-.6l.11-.47a29.26,29.26,0,0,0,3.37.55c0-.54,0-1.08,0-1.61a19.28,19.28,0,0,1,.11-2.18l.48,0a18.4,18.4,0,0,0-.11,2.13q0,.81.06,1.65h-.12Zm-7.49-1.75a20.17,20.17,0,0,1-3.43-1.78l.26-.41a18.92,18.92,0,0,0,3.35,1.74Zm18.73-.22-.27-.4.28-.2A7.85,7.85,0,0,0,267.65,89l.42.23a8.27,8.27,0,0,1-2.33,2.68Zm-25.15-4a22.22,22.22,0,0,1-2.45-3l.4-.27a21.18,21.18,0,0,0,2.39,2.92Zm15-1.93-.45-.17a10.58,10.58,0,0,1,2-3.33l.36.32A10.23,10.23,0,0,0,255.26,86.16Zm13.27-.72a5.07,5.07,0,0,0-.61-2.25,4.92,4.92,0,0,0-.77-1l.35-.33a5,5,0,0,1,.84,1.14,5.55,5.55,0,0,1,.68,2.46ZM213.9,82.18V81.7c1.21,0,2.49,0,3.8-.13l0,.48C216.41,82.13,215.12,82.18,213.9,82.18Zm-3.84-.11c-1.31-.09-2.59-.23-3.82-.42l.07-.47c1.22.18,2.49.32,3.78.41Zm25.83-.29c-.55-1.08-1.06-2.23-1.56-3.51l.44-.18c.5,1.27,1,2.4,1.55,3.47Zm-14.34-.06-.05-.48c1-.1,1.95-.22,3-.37l.77-.11.06.48-.76.11C223.51,81.49,222.52,81.62,221.55,81.72Zm38.7-.74-.16-.46a8.45,8.45,0,0,1,3.88-.39l-.07.48A8,8,0,0,0,260.25,81Zm-57.78-.1a34.07,34.07,0,0,1-3.67-1.16l.17-.45a35.5,35.5,0,0,0,3.62,1.15Zm26.67-.28-.1-.48c1.34-.27,2.55-.57,3.69-.92l.14.46C231.71,80,230.49,80.32,229.14,80.6Zm7.33-2.3-.2-.44A21.14,21.14,0,0,0,239.54,76l.28.39A20.93,20.93,0,0,1,236.47,78.3Zm-41.18-.16a29.07,29.07,0,0,1-3.28-2l.28-.39a29.61,29.61,0,0,0,3.23,2ZM233,74.65a30.56,30.56,0,0,1-.95-3.73l.48-.09a30.08,30.08,0,0,0,.93,3.68Zm9.65-.88-.37-.31a15.3,15.3,0,0,0,2.07-3.13l.43.21A15.56,15.56,0,0,1,242.69,73.77Zm-10.42-6.69-.48,0a16,16,0,0,1,.16-1.71,11.8,11.8,0,0,1,.55-2.1l.45.16a11.11,11.11,0,0,0-.52,2A14.64,14.64,0,0,0,232.27,67.08Zm13.78-.22-.48-.09a11,11,0,0,0,.18-2,10.17,10.17,0,0,0-.15-1.75l.47-.08a10,10,0,0,1,.16,1.83A12,12,0,0,1,246.05,66.86Zm-11.24-6.67-.37-.32a8.61,8.61,0,0,1,3.12-2.34l.19.45A7.85,7.85,0,0,0,234.81,60.19Zm9.42-.57a5,5,0,0,0-1.82-1.68,4.25,4.25,0,0,0-1.07-.38l.11-.47a4.59,4.59,0,0,1,1.18.42,5.52,5.52,0,0,1,2,1.84Z"/><path class="cls-5" d="M329.88,152.89h-.61v-.48h1.93v.48Z"/><path class="cls-6" d="M334.31,64.87c-.69-.37-1.39-.71-2.1-1a27,27,0,0,1-25.5,47.28c.65.42,1.31.82,2,1.19a27,27,0,0,0,25.59-47.46Z"/><path class="cls-4" d="M330.2,62.66a27,27,0,1,0,10.94,36.53A27,27,0,0,0,330.2,62.66Zm-22,40.77a19.36,19.36,0,1,1,26.23-7.85A19.35,19.35,0,0,1,308.22,103.43Z"/><path class="cls-4" d="M297.79,75.8a27,27,0,0,1,34.42-11.94,22.22,22.22,0,0,0-2-1.2,27,27,0,0,0-25.59,47.46q1,.55,2.1,1A27,27,0,0,1,297.79,75.8Z"/><path class="cls-7" d="M326.31,69.19a19.36,19.36,0,1,0,8.29,26.1A19.37,19.37,0,0,0,326.31,69.19Z"/><path class="cls-8" d="M334.42,77.15,298.12,88a19.22,19.22,0,0,1,2-10.41l26.81-8A19.17,19.17,0,0,1,334.42,77.15Z"/><path class="cls-9" d="M334.6,95.29a5.45,5.45,0,0,1-.29.53l-25.86,7.73A19.24,19.24,0,0,1,299.2,93l37-11.09A19.28,19.28,0,0,1,334.6,95.29Z"/><rect class="cls-4" x="288.78" y="103.97" width="9.73" height="58.94" transform="translate(98.54 -123.4) rotate(28.34)"/><path class="cls-6" d="M420.45,95.63V90.54a2,2,0,0,0-2-2h-2.59a2.81,2.81,0,0,1-2.66-2,20.85,20.85,0,0,0-1.11-2.67,2.8,2.8,0,0,1,.5-3.27l1.83-1.83a2,2,0,0,0,0-2.84l-3.6-3.59a2,2,0,0,0-2.83,0l-1.83,1.83a2.84,2.84,0,0,1-3.27.5,19.63,19.63,0,0,0-2.68-1.11,2.82,2.82,0,0,1-1.95-2.67V68.35a2,2,0,0,0-2-2h-5.08a2,2,0,0,0-2,2v2.58a2.82,2.82,0,0,1-2,2.67,19.63,19.63,0,0,0-2.68,1.11,2.84,2.84,0,0,1-3.27-.5l-1.83-1.83a2,2,0,0,0-2.83,0L373,76a2,2,0,0,0,0,2.84l1.83,1.83a2.8,2.8,0,0,1,.5,3.27,20.85,20.85,0,0,0-1.11,2.67,2.81,2.81,0,0,1-2.66,2H369a2,2,0,0,0-2,2v5.09a2,2,0,0,0,2,2h2.59a2.81,2.81,0,0,1,2.66,2,20.4,20.4,0,0,0,1.11,2.68,2.81,2.81,0,0,1-.5,3.27L373,107.36a2,2,0,0,0,0,2.84l3.6,3.59a2,2,0,0,0,2.83,0l1.83-1.83a2.82,2.82,0,0,1,3.27-.5,21,21,0,0,0,2.68,1.11,2.81,2.81,0,0,1,2,2.66v2.59a2,2,0,0,0,2,2h5.08a2,2,0,0,0,2-2v-2.59a2.81,2.81,0,0,1,1.95-2.66,21,21,0,0,0,2.68-1.11,2.82,2.82,0,0,1,3.27.5l1.83,1.83a2,2,0,0,0,2.83,0l3.6-3.59a2,2,0,0,0,0-2.84l-1.83-1.83a2.81,2.81,0,0,1-.5-3.27,20.4,20.4,0,0,0,1.11-2.68,2.81,2.81,0,0,1,2.66-2h2.59A2,2,0,0,0,420.45,95.63Zm-26.74,3.59a6.14,6.14,0,1,1,6.14-6.14A6.14,6.14,0,0,1,393.71,99.22Z"/><path class="cls-4" d="M445.44,127.25v-2.88a1.14,1.14,0,0,0-1.13-1.14h-1.47a1.6,1.6,0,0,1-1.51-1.1,11.81,11.81,0,0,0-.62-1.52,1.59,1.59,0,0,1,.28-1.85l1-1a1.15,1.15,0,0,0,0-1.61l-2-2a1.13,1.13,0,0,0-1.6,0l-1,1a1.59,1.59,0,0,1-1.85.29,10.47,10.47,0,0,0-1.51-.63,1.6,1.6,0,0,1-1.11-1.51v-1.46a1.14,1.14,0,0,0-1.13-1.14h-2.88a1.14,1.14,0,0,0-1.14,1.14v1.46a1.6,1.6,0,0,1-1.1,1.51,10.58,10.58,0,0,0-1.52.63,1.59,1.59,0,0,1-1.85-.29l-1-1a1.15,1.15,0,0,0-1.61,0l-2,2a1.15,1.15,0,0,0,0,1.61l1,1a1.6,1.6,0,0,1,.29,1.85,10.58,10.58,0,0,0-.63,1.52,1.6,1.6,0,0,1-1.51,1.1h-1.46a1.14,1.14,0,0,0-1.14,1.14v2.88a1.14,1.14,0,0,0,1.14,1.13h1.46a1.6,1.6,0,0,1,1.51,1.11,10.47,10.47,0,0,0,.63,1.51,1.59,1.59,0,0,1-.29,1.85l-1,1a1.13,1.13,0,0,0,0,1.6l2,2a1.15,1.15,0,0,0,1.61,0l1-1a1.59,1.59,0,0,1,1.85-.28,13.5,13.5,0,0,0,1.52.63,1.58,1.58,0,0,1,1.1,1.5v1.47a1.14,1.14,0,0,0,1.14,1.13h2.88a1.14,1.14,0,0,0,1.13-1.13v-1.47a1.58,1.58,0,0,1,1.11-1.5,13.35,13.35,0,0,0,1.51-.63,1.59,1.59,0,0,1,1.85.28l1,1a1.13,1.13,0,0,0,1.6,0l2-2a1.13,1.13,0,0,0,0-1.6l-1-1a1.59,1.59,0,0,1-.28-1.85,11.68,11.68,0,0,0,.62-1.51,1.6,1.6,0,0,1,1.51-1.11h1.47A1.14,1.14,0,0,0,445.44,127.25Zm-15.13,4.6a6,6,0,1,1,6-6A6,6,0,0,1,430.31,131.85Z"/><path class="cls-10" d="M455.63,94.54V91.66a1.12,1.12,0,0,0-1.13-1.13H453a1.58,1.58,0,0,1-1.5-1.11,12.62,12.62,0,0,0-.63-1.51,1.59,1.59,0,0,1,.28-1.85l1-1a1.13,1.13,0,0,0,0-1.6l-2-2a1.13,1.13,0,0,0-1.6,0l-1,1a1.59,1.59,0,0,1-1.85.28,12.62,12.62,0,0,0-1.51-.63,1.58,1.58,0,0,1-1.11-1.5V79.1A1.12,1.12,0,0,0,441.94,78h-2.88a1.12,1.12,0,0,0-1.13,1.13v1.47a1.58,1.58,0,0,1-1.11,1.5,12.62,12.62,0,0,0-1.51.63,1.59,1.59,0,0,1-1.85-.28l-1-1a1.13,1.13,0,0,0-1.6,0l-2,2a1.13,1.13,0,0,0,0,1.6l1,1a1.59,1.59,0,0,1,.28,1.85,12.62,12.62,0,0,0-.63,1.51,1.58,1.58,0,0,1-1.5,1.11H426.5a1.12,1.12,0,0,0-1.13,1.13v2.88a1.12,1.12,0,0,0,1.13,1.13H428a1.58,1.58,0,0,1,1.5,1.11,12.62,12.62,0,0,0,.63,1.51,1.59,1.59,0,0,1-.28,1.85l-1,1a1.13,1.13,0,0,0,0,1.6l2,2a1.13,1.13,0,0,0,1.6,0l1-1a1.59,1.59,0,0,1,1.85-.28,12.62,12.62,0,0,0,1.51.63,1.58,1.58,0,0,1,1.11,1.5v1.47a1.12,1.12,0,0,0,1.13,1.13h2.88a1.12,1.12,0,0,0,1.13-1.13v-1.47a1.58,1.58,0,0,1,1.11-1.5,12.62,12.62,0,0,0,1.51-.63,1.59,1.59,0,0,1,1.85.28l1,1a1.13,1.13,0,0,0,1.6,0l2-2a1.13,1.13,0,0,0,0-1.6l-1-1a1.59,1.59,0,0,1-.28-1.85,12.62,12.62,0,0,0,.63-1.51,1.58,1.58,0,0,1,1.5-1.11h1.47A1.12,1.12,0,0,0,455.63,94.54Zm-15.13,1.6a3,3,0,1,1,3-3A3,3,0,0,1,440.5,96.14Z"/><path class="cls-6" d="M125.51,186s-29-37.78-90.22-33.88C35.29,152.16,67.76,191,125.51,186Z"/><path class="cls-3" d="M107.82,160.34s6.27-47.18-39.77-87.78C68.05,72.56,63.52,123,107.82,160.34Z"/><path class="cls-3" d="M103.34,166.44s40.79-22.06,46.45-81.6C149.79,84.84,107.45,110.12,103.34,166.44Z"/><path class="cls-6" d="M112.6,163.1s-34-20.86-21.58-31.43c9.28-7.92-9-18.08-2.06-22s8.41-.32,6-10.45,5.72-12.87,8.67-23.17S121.1,69.52,120,84.49s3.32-.89,8.15,5.41-11.19,30.56-5.1,28.49,10.77,2.56,8.66,9.87C126.83,145.34,112.6,163.1,112.6,163.1Z"/><path class="cls-5" d="M113.78,170.59a.19.19,0,0,1-.11-.15,354.2,354.2,0,0,1-6.16-42.24v-.13l-.09-.08a91.72,91.72,0,0,1-9.54-10c-1-1.13-2-2.27-3-3.38-.06-.07-.06-.12,0-.17a.27.27,0,0,1,.31-.09.19.19,0,0,1,.07.06c1,1.09,1.93,2.2,2.89,3.31a98.24,98.24,0,0,0,8.76,9.29l.53.48,0-.71c-.42-6.52-.57-13.17-.44-20.35v-.19l-.17-.08a.17.17,0,0,1-.08-.06,77.36,77.36,0,0,1-7-13,.16.16,0,0,1,0-.19.27.27,0,0,1,.27-.06.21.21,0,0,1,.08.1,77.48,77.48,0,0,0,6.32,12l.52.8,0-1c.16-6.78.55-13.79,1.2-21.42a.15.15,0,0,1,.06-.12.25.25,0,0,1,.22,0,.19.19,0,0,1,.12.21c-.89,10.43-1.3,19.87-1.27,28.83v.57l.46-.33a48.65,48.65,0,0,0,12.85-13.74.1.1,0,0,1,.15,0,.33.33,0,0,1,.15.18.21.21,0,0,1,0,.19,48.66,48.66,0,0,1-13.42,14.15l-.15.09v.16c0,5,.22,9.71.54,14.26v.08l0,.07a.17.17,0,0,1,0,.19l0,.07v.08c.29,4,.72,8.25,1.3,12.92l.1.77.43-.64A194.5,194.5,0,0,1,123,124.06a.19.19,0,0,1,.24,0,.25.25,0,0,1,.13.16s0,.07,0,.14a194.21,194.21,0,0,0-13.88,18.17l-.06.09,0,.11c1.06,8.17,2.55,17,4.67,27.75a.16.16,0,0,1,0,.15.29.29,0,0,1-.27,0Z"/><path class="cls-4" d="M117.19,164.41s-39.07,15-40-2.06c-.67-12.8-20.83-4-19.65-12.34s5.09-7.22-4.91-11.63-7.08-13-13.79-22,5.75-18.76,17.54-8.31,1.38-3.34,9.71-3.34,18.34,28.83,20.5,22.44,9-7.35,13.75-.93C111.47,141.22,117.19,164.41,117.19,164.41Z"/><path class="cls-5" d="M124.19,168.21a.18.18,0,0,1-.19,0c-11.09-5.47-25.56-12.9-39.15-21.83l-.1-.07-.13,0a96.51,96.51,0,0,1-14.42,1.58c-1.57.09-3.14.18-4.7.3-.09,0-.14,0-.16-.1a.3.3,0,0,1,.13-.31l.09,0c1.53-.12,3.07-.21,4.6-.3a102.22,102.22,0,0,0,13.34-1.36l.74-.15-.62-.41c-5.71-3.8-11.35-7.93-17.25-12.61l-.15-.13-.18.1a.2.2,0,0,1-.1,0,81.78,81.78,0,0,1-15.32-2.52.15.15,0,0,1-.13-.15.25.25,0,0,1,.12-.25.17.17,0,0,1,.14,0,81.2,81.2,0,0,0,14.06,2.41l1,.08-.77-.62c-5.55-4.46-11.14-9.26-17.09-14.68-.07-.06-.07-.11-.06-.13s.07-.13.14-.17a.2.2,0,0,1,.25,0C56.4,124.33,64,130.7,71.5,136.39l.48.36v-.59a50.92,50.92,0,0,0-3.25-19.48c0-.08,0-.13.06-.17a.36.36,0,0,1,.25,0,.24.24,0,0,1,.13.15,50.83,50.83,0,0,1,3.23,20.22l0,.18.14.11c4.23,3.17,8.23,6,12.23,8.65l.07,0h.09a.17.17,0,0,1,.16.11l0,.08.07,0c3.54,2.33,7.33,4.67,11.59,7.17l.7.4-.25-.76a203.74,203.74,0,0,1-5.94-22.07.2.2,0,0,1,.12-.23.23.23,0,0,1,.21,0,.15.15,0,0,1,.09.12A204.34,204.34,0,0,0,98,153.88l0,.11.1,0c7.49,4.33,15.78,8.72,26.12,13.82.09,0,.09.1.09.12a.27.27,0,0,1-.16.23Z"/><path class="cls-11" d="M400.64,129.8H94.71A5.21,5.21,0,0,0,89.5,135l-.63,149.18a5.21,5.21,0,0,0,5.21,5.21l306.56-2.52a5.22,5.22,0,0,0,5.21-5.22V135A5.21,5.21,0,0,0,400.64,129.8Z"/><rect class="cls-2" x="119.79" y="171.94" width="250.48" height="31.25" rx="4.35"/><path class="cls-4" d="M179,171.94H124.14a4.35,4.35,0,0,0-4.35,4.35v22.54a4.36,4.36,0,0,0,4.35,4.36H179a4.43,4.43,0,0,0,4.42-4.43v-22.4A4.42,4.42,0,0,0,179,171.94Z"/><rect class="cls-3" x="122.75" y="219.48" width="41.16" height="41.16" rx="5.09"/><rect class="cls-3" x="204.44" y="219.48" width="41.16" height="41.16" rx="5.09"/><path class="cls-12" d="M169.24,223.91a.65.65,0,0,1,0-1.29h27.33a.65.65,0,0,1,0,1.29Z"/><path class="cls-12" d="M169.24,230.55a.64.64,0,0,1-.64-.64.64.64,0,0,1,.64-.64h27.33a.64.64,0,0,1,.64.64.64.64,0,0,1-.64.64Z"/><path class="cls-12" d="M169.24,237.19a.64.64,0,0,1-.64-.64.64.64,0,0,1,.64-.64h27.33a.64.64,0,0,1,.64.64.64.64,0,0,1-.64.64Z"/><path class="cls-12" d="M169.24,243.84a.65.65,0,0,1,0-1.29h27.33a.65.65,0,0,1,0,1.29Z"/><path class="cls-12" d="M169.24,250.48a.65.65,0,0,1,0-1.29h27.33a.65.65,0,0,1,0,1.29Z"/><path class="cls-12" d="M169.24,257.12a.64.64,0,0,1-.64-.64.64.64,0,0,1,.64-.64h11.69a.64.64,0,0,1,.64.64.64.64,0,0,1-.64.64Z"/><path class="cls-12" d="M252.53,223.91a.65.65,0,0,1,0-1.29h27.32a.65.65,0,1,1,0,1.29Z"/><path class="cls-12" d="M252.53,230.55a.64.64,0,0,1,0-1.28h27.32a.64.64,0,1,1,0,1.28Z"/><path class="cls-12" d="M252.53,237.19a.64.64,0,1,1,0-1.28h27.32a.64.64,0,1,1,0,1.28Z"/><path class="cls-12" d="M252.53,243.84a.65.65,0,0,1,0-1.29h27.32a.65.65,0,1,1,0,1.29Z"/><path class="cls-12" d="M252.53,250.48a.65.65,0,0,1,0-1.29h27.32a.65.65,0,1,1,0,1.29Z"/><path class="cls-12" d="M252.53,257.12a.64.64,0,1,1,0-1.28h11.69a.64.64,0,0,1,.64.64.64.64,0,0,1-.64.64Z"/><rect class="cls-2" x="288.44" y="219.48" width="41.16" height="41.16" rx="5.09"/><path class="cls-12" d="M336.52,223.91a.65.65,0,0,1,0-1.29h27.33a.65.65,0,0,1,0,1.29Z"/><path class="cls-12" d="M336.52,230.55a.64.64,0,0,1-.64-.64.64.64,0,0,1,.64-.64h27.33a.64.64,0,0,1,.64.64.64.64,0,0,1-.64.64Z"/><path class="cls-12" d="M336.52,237.19a.64.64,0,0,1-.64-.64.64.64,0,0,1,.64-.64h27.33a.64.64,0,0,1,.64.64.64.64,0,0,1-.64.64Z"/><path class="cls-12" d="M336.52,243.84a.65.65,0,0,1,0-1.29h27.33a.65.65,0,0,1,0,1.29Z"/><path class="cls-12" d="M336.52,250.48a.65.65,0,0,1,0-1.29h27.33a.65.65,0,0,1,0,1.29Z"/><path class="cls-12" d="M336.52,257.12a.64.64,0,0,1-.64-.64.64.64,0,0,1,.64-.64h11.69a.64.64,0,1,1,0,1.28Z"/><path class="cls-13" d="M398.74,138h-8.05a.8.8,0,0,0-.8.8h0a.79.79,0,0,0,.8.79h8.05a.79.79,0,0,0,.8-.79h0A.8.8,0,0,0,398.74,138Z"/><path class="cls-13" d="M398.74,141.81h-8.05a.8.8,0,0,0-.8.8h0a.8.8,0,0,0,.8.8h8.05a.8.8,0,0,0,.8-.8h0A.8.8,0,0,0,398.74,141.81Z"/><path class="cls-13" d="M398.74,145.54h-8.05a.8.8,0,0,0-.8.8h0a.8.8,0,0,0,.8.8h8.05a.8.8,0,0,0,.8-.8h0A.8.8,0,0,0,398.74,145.54Z"/><path class="cls-4" d="M108.54,142.13a3.55,3.55,0,1,1-3.54-3.55A3.55,3.55,0,0,1,108.54,142.13Z"/><path class="cls-5" d="M127.68,142.13a3.54,3.54,0,1,1-3.54-3.55A3.54,3.54,0,0,1,127.68,142.13Z"/><path class="cls-6" d="M147.25,142.13a3.55,3.55,0,1,1-3.54-3.55A3.54,3.54,0,0,1,147.25,142.13Z"/><path class="cls-5" d="M235.64,244.15l-9-12.88a2.48,2.48,0,0,0-4.05,0l-9,12.88a2.47,2.47,0,0,0,2,3.89h18.1A2.47,2.47,0,0,0,235.64,244.15Z"/><circle class="cls-6" cx="308.79" cy="241.6" r="10.64"/><path class="cls-2" d="M464.71,292.89c0-5.57-93-10.08-207.68-10.08S49.35,287.32,49.35,292.89,142.33,303,257,303,464.71,298.46,464.71,292.89Z"/><path class="cls-14" d="M230.27,102.65c-.35-2.4-1.65-7.66-6.15-5.83-8.77-3.4-12.68.89-13.31,6.58-.78,7.16-4.8,10-3.31,12.07,1.86,2.57,7.61,6.32,13.55,6.45,6.2.13,11.64-4.89,13.28-7.61C235.63,112.14,231.31,109.77,230.27,102.65Z"/><path class="cls-13" d="M260,138.3c-3.14-5.72-15.47-18.69-16.85-19.16-3.86-1.31-10-1.9-13.6-2.21a84.09,84.09,0,0,0-9-.31l-2.62,0c-3.4,0-12.86.42-19.54,2.69-1.38.47-14.14,13.23-17.28,19a4.86,4.86,0,0,0-.15,4.38l13.45,26.94,6.7-1.42-5.31-23.26a5.21,5.21,0,0,1,1.51-4.88L205.86,130h29.3l8.64,10.05a5.16,5.16,0,0,1,1.51,4.88L240,168.2l6.82,1,13.33-26.48A4.89,4.89,0,0,0,260,138.3Z"/><path class="cls-15" d="M200.48,168.32l2.92,2.52a.59.59,0,0,1-.31,1l-1.24.1.81,2.16c.84,2.26-3.86,5.72-5.8,1.25l-2-5.86Z"/><path class="cls-15" d="M240.75,168.3l-3,2.54a.58.58,0,0,0,.31,1l1.23.1-.81,2.16c-.84,2.26,3.86,5.72,5.8,1.25l2.08-6.31Z"/><path class="cls-15" d="M228.2,105.78l.12,5.43a7.33,7.33,0,0,1-2.19,5.38c-.24.22-.47.45-.72.69a6.58,6.58,0,0,1-9,.18l-.74-.66a7.25,7.25,0,0,1-2.41-5.26l-.11-5.46s7.66-.07,10.58-3.71A7.12,7.12,0,0,0,228.2,105.78Z"/><path class="cls-15" d="M228.2,105.78l.12,5.43a7.33,7.33,0,0,1-2.19,5.38c-.24.22-.47.45-.72.69a6.58,6.58,0,0,1-9,.18l-.74-.66a7.25,7.25,0,0,1-2.41-5.26l-.11-5.46s7.59-.06,10.51-3.7A7.37,7.37,0,0,0,228.2,105.78Z"/><path class="cls-15" d="M215.12,112.56a2.39,2.39,0,0,0-3.41-3.27,1.41,1.41,0,0,0-.45.46,2.4,2.4,0,0,0,3.42,3.28A1.41,1.41,0,0,0,215.12,112.56Z"/><path class="cls-15" d="M230.15,112.26a2.39,2.39,0,0,0-3.25-3.38,1.85,1.85,0,0,0-.71.73,2.39,2.39,0,0,0,3.51,3.11A1.52,1.52,0,0,0,230.15,112.26Z"/><path class="cls-15" d="M225.1,117.83a4.27,4.27,0,1,0-8.54,0c0,2.38,1.91,4.8,4.27,4.8S225.1,120.21,225.1,117.83Z"/><path class="cls-16" d="M216.58,117.63a1.36,1.36,0,0,0,0,.2,6.68,6.68,0,0,0,4.39,2.38c2.09,0,4.15-2.23,4.15-2.38s0-.17,0-.25A6.59,6.59,0,0,1,216.58,117.63Z"/><path class="cls-6" d="M201.12,168.2l-5.31-23.26a5.21,5.21,0,0,1,1.51-4.88L205.86,130s1.89-3.25.94-2.83-13.55,11.29-14.7,13.92c-.89,2,4.1,19.46,6.51,27.63Z"/><path class="cls-6" d="M243.15,119.14l-.7-.22c2.44,2.87,17.25,20.51,15.62,24.17-1.48,3.31-10.73,20.07-13.57,25.74l2.33.33,13.33-26.48a4.89,4.89,0,0,0-.16-4.38C256.86,132.58,244.53,119.61,243.15,119.14Z"/><path class="cls-5" d="M119.73,250l.77,2.14L131.83,251s12.5,15.93,17.69,21.36c.54.56,1.14,1.24,1.77,2,3.3-8,10-33.2,3.19-35.21C144.43,236.21,119.73,250,119.73,250Z"/><path class="cls-17" d="M142.46,264.23c2.68,3.24,5.29,6.3,7.06,8.15.54.56,1.14,1.24,1.77,2,2.06-5,5.42-16.62,6-25.19C155.05,249.51,147.41,258.29,142.46,264.23Z"/><path class="cls-18" d="M131.84,251s12.49,15.93,17.68,21.36,17,21.49-14.82,20.26-46.33-6.13-46.33-6.13l-.66-6.92,33.34-3.54s-20.83-2.43-18.28-22.06Z"/><path class="cls-10" d="M132.43,253.48l.57-1c3.22,4.07,12.29,15.46,16.52,19.88,2,2.14,5.11,5.92,6.15,9.65-2.44-5.67-9.94-11-16.33-17.2C131.09,256.79,132.43,253.48,132.43,253.48Z"/><path class="cls-5" d="M81.94,281l-.28,0c-1.14.09-4.29.26-4.93,1.68-.74,1.65-1,9.83,4.35,10.08s-1-4,.83-5.79Z"/><path class="cls-5" d="M87.71,279.59l33.34-3.54s3.62,1.57,14.82,6c6.8,2.7,13.88,5.45,17.78,7.25-2.84,2.3-8.58,3.73-19,3.33-31.86-1.24-46.33-6.13-46.33-6.13Z"/><path class="cls-19" d="M88.37,286.51s-4-1.69-6.18.57c-3.08,3.27-.25-6.05-.25-6.05l5.77-1.44Z"/><path class="cls-11" d="M163.65,198.05l-9.7-8a.94.94,0,0,1-.24-1.13,8.08,8.08,0,0,0-12.83-9.4,7.76,7.76,0,0,0-1.36,1.7,8.08,8.08,0,0,0,11.74,10.65.85.85,0,0,1,.3-.15.91.91,0,0,1,.85.18l9.69,8a1.17,1.17,0,0,0,.88.27,1.2,1.2,0,0,0,.67-2.12ZM151,189.18a5.92,5.92,0,1,1-.77-8.34A5.91,5.91,0,0,1,151,189.18Z"/><path class="cls-4" d="M150.24,180.84a5.92,5.92,0,1,0,.77,8.34A5.91,5.91,0,0,0,150.24,180.84Z"/><path class="cls-19" d="M158.46,193.27a3.61,3.61,0,0,0-2.65,1.4c-.25-.82-.68-2-1.13-2.22-.68-.27-1.48,5.35-1.48,5.35l.48-.41-.12.19,4.72,2.45C161.3,195.87,160.61,193.56,158.46,193.27Z"/><path class="cls-4" d="M102.79,236c.94-9.71,2.34-20.09,4.15-22.88a9.61,9.61,0,0,1,2.74-3h0s-8.79,5.6-12.41,14.24C95.5,228.46,98.86,232.69,102.79,236Z"/><path class="cls-19" d="M126.71,209.65l-.3-3.83a5.7,5.7,0,0,0,3.24-1.66c2.38-2.48,2.34-7.14.2-9.78-2,.6-4.49.19-4.58,1.27-.15,1.72-.32,3.1-.32,3.1-1.63-1-3.36-.88-3.13,1.31.09.88.71,2.28,1.36,2.39a5,5,0,0,1-3.18,5.17h0v1.32Z"/><path class="cls-5" d="M113.61,196.78c1.61-6.63,4.21-10.37,11.29-10.55,6.45-.16,7.31,5.21,7.31,5.21-.2,4.65-6.8,2.45-7,4.21s-.31,3.1-.31,3.1c-1.63-1-3.36-.88-3.13,1.31.09.88.71,2.28,1.36,2.39a5,5,0,0,1-3.19,5.17S112,203.39,113.61,196.78Z"/><path class="cls-20" d="M113.61,196.78c1.61-6.63,4.21-10.37,11.29-10.55,4.28-.1,6.1,2.22,6.84,3.8-3.15-3-10-4.78-14.35,2.15-3.73,6-1.38,13.23,5.53,12.44a4.77,4.77,0,0,1-2.93,3S112,203.39,113.61,196.78Z"/><path class="cls-21" d="M124.94,207c-.6-.37-1.3-2.31-1.3-2.31.72.84,2.77,1.1,2.77,1.1l.3,3.82-1.51-.16C125.24,208.29,125.2,207.2,124.94,207Z"/><path class="cls-4" d="M101.34,254.83s2-36.16,5.59-41.76c1.51-2.34,2.78-3.49,5.06-3.95a50,50,0,0,1,8-.32c3.15.3,11,1.34,12.94,2.12,2.63,1.07,13.1,10.18,13.1,10.18l7-24,5.8,2.17s-5.66,35.05-10.19,35.13S132.58,228,132.58,228,131.71,250,136,254.05C136,254.05,117.89,262.41,101.34,254.83Z"/><path class="cls-12" d="M107,212a32.88,32.88,0,0,1,2.7-2h0a9.61,9.61,0,0,0-2.74,3c-1.81,2.79-3.21,13.17-4.15,22.88a27.59,27.59,0,0,1-2.72-2.56C100.5,227.61,102,217.41,107,212Z"/><path class="cls-22" d="M126.09,225.28c-.62-1.24,6.49,2.69,6.49,2.69S131.71,250,136,254.05c0,0-1.26.58-3.42,1.3-2.46-7.38-1.9-17.33-2.35-20.79C129.6,229.81,126.71,226.51,126.09,225.28Z"/><path class="cls-19" d="M366.8,288.43c0,.35,0,.73-.07,1.13a3,3,0,0,1-1.75,2.08,1.24,1.24,0,0,1,.45.1c2.15.94,3.38,1.18,5.48.28a.67.67,0,0,1,.48,0c-.08-1.05-.29-2.5-.45-3.57Z"/><path class="cls-10" d="M371.86,295.26c0-.89,0-1.89,0-2.65a.67.67,0,0,0-.94-.59c-2.1.9-3.34.66-5.49-.28-1.66-.72-7,2.27-8.34,3.14l0,0a.84.84,0,0,0,.48,1.53h13.07A1.25,1.25,0,0,0,371.86,295.26Z"/><path class="cls-19" d="M388.45,287.63c0,.34,0,.72-.07,1.12a3,3,0,0,1-1.75,2.08,1.78,1.78,0,0,1,.44.1c2.16.94,3.39,1.18,5.48.29a.67.67,0,0,1,.48,0c-.08-1.05-.28-2.5-.44-3.57Z"/><path class="cls-10" d="M393.5,294.45c.05-.89,0-1.89,0-2.64a.67.67,0,0,0-.94-.59c-2.1.89-3.33.65-5.49-.29-1.65-.72-7,2.28-8.33,3.15h0a.84.84,0,0,0,.49,1.53h13.07A1.22,1.22,0,0,0,393.5,294.45Z"/><path class="cls-18" d="M389.46,212.24c0,1.84,1.3,6.82,1.3,12.38,0,10.69-5.44,25-5.44,25l9.07,38.57-7.68.23-17-37.74,1.24-40.37Z"/><path class="cls-10" d="M383.35,210.08s-1.22,12.56-3.77,21.83c-2.14,7.74-17.62,19.48-17.62,19.48L372,288.94h-6.28l-22.46-36.48a6.22,6.22,0,0,1,.24-4.79L365,206.75Z"/><path class="cls-19" d="M330.36,203.32H322.3s.4,4.83,8.78,4.83Z"/><path class="cls-19" d="M373.68,162.42a11.17,11.17,0,0,0,.14-2.12c-.25-2.49-1.74-2.93-3.46-1.39A7,7,0,0,1,368,156c-.51-1.15-2.66-.27-4.33-.6A9.53,9.53,0,0,0,366.55,166a5.73,5.73,0,0,0,3.86,1l.41,6.22,7.55-2-.11-3.66A4.47,4.47,0,0,1,373.68,162.42Z"/><path class="cls-5" d="M367.82,288.94c-1.59-2.7-21.31-36.3-18.4-40.4,3-4.27,16.55-30.78,16.55-30.78l-3.21-4.09-2.5,2.06-16.74,31.94a6.22,6.22,0,0,0-.24,4.79l22.46,36.48Z"/><path class="cls-4" d="M365.2,179.88c.41-7.68,12.36-8.28,13.64-8.3a6,6,0,0,1,4.41,2.11c1.92,2.12,5.56,6.78,4.39,13.34-3,16.83,3.2,27.56,4,32.85C380.52,224.37,357,218.8,357,218.8l7.18-27.35Z"/><path class="cls-4" d="M356.29,198.23s7.31-26.53,16.64-25c10.32,1.69-6.68,34.61-6.68,34.61l-35.23.71-.71-5.61Z"/><path class="cls-12" d="M371.57,207c-1.73,5.22-7.48,4.8-7.48,4.8l-3.2,7.85c-2.4-.45-3.89-.8-3.89-.8L359.84,208l6.42-.13s11.82-22.91,9.75-31.49C376.38,177.09,379.19,184,371.57,207Z"/><path class="cls-5" d="M381.54,189.29c-11.92-.62-7.9-23.83-7.76-28.32.07-2.5-1.7-3.6-3.42-2.06a7.06,7.06,0,0,1-2.42-2.9c-.5-1.15-3.17-.27-4.84-.6,3.4-13.72,19.5-13.08,26.62,5.49C395.86,176.92,400.58,190.27,381.54,189.29Z"/><path class="cls-21" d="M371.44,168.31a29.63,29.63,0,0,0,1.57-2.8,9.77,9.77,0,0,1-2.33,1.42l-.27.12.41,6.22.85-.23C371.48,171.16,371.25,168.5,371.44,168.31Z"/><path class="cls-22" d="M362.94,186.44a25.05,25.05,0,0,1,7.57-13c-8.14,2.74-14.22,24.78-14.22,24.78l-26,4.71,29.07-1.73S361.16,194.8,362.94,186.44Z"/><path class="cls-23" d="M376.11,149.43c8.66,3.89,13.63,18,11.25,39.61,12.06-2,7.77-14,2.36-28.14-7.12-18.57-23.22-19.21-26.62-5.49C363.1,155.41,367.39,145.51,376.11,149.43Z"/><path class="cls-4" d="M450.85,216.29c-.56,3.06-10.61,20.78-16.82,32.63a33.13,33.13,0,0,0-3.14,21.49h1.19c-.72-4.09-1-3.47,0-9.86,1.13-7,12.09-11.88,19-25.39S451.42,213.23,450.85,216.29Z"/><path class="cls-4" d="M427.75,263.14c.35,3.36.63,5.69.75,7.27h.61c.2-5.7.55-15.54.32-22.12-.35-9.69,2.32-13.68,3.82-30s-2.72-39.46-2.72-39.46-10.16,20.75-6.62,43.84S426.21,248.32,427.75,263.14Z"/><path class="cls-4" d="M424.88,259.89A89,89,0,0,0,426,270.41h.64c-.11-1.69-.23-4.8-.36-10.32-.39-16.73-2.1-16.53-5-27.73s-7.55-15.84-12.39-21.47c0,0-5,8,2.06,20s9.83,12.78,11.5,18.66S424.77,254.63,424.88,259.89Z"/><path class="cls-4" d="M423.24,270.41h.7a13.54,13.54,0,0,0-1.52-8.9c-3.21-5.44-5.71-12.61-10.67-17.36-6.77-6.47-11.47-22.67-11.47-22.67s-3.56,14.38,3.32,25.78,12.65,13.56,15.73,15.42A8.51,8.51,0,0,1,423.24,270.41Z"/><path class="cls-6" d="M428.54,270.41h.12l.53-2.21c.2-5.8.44-14.12.24-19.91-.35-9.69,2.32-13.68,3.82-30s-2.72-39.46-2.72-39.46-3.87,32.22-2.8,47C428.72,239.48,428.57,266.46,428.54,270.41Z"/><path class="cls-6" d="M451.23,215.7c.1,4.34-.24,19.13-9,27C432.2,251.8,429,261.86,432,270.41h.09c-.72-4.09-1-3.47,0-9.86,1.13-7,12.09-11.88,19-25.39C457.2,223.14,452.7,215.16,451.23,215.7Z"/><path class="cls-6" d="M426.26,270.41h.33c-.11-1.69-.23-4.8-.36-10.32-.39-16.73-2.1-16.53-5-27.73s-7.55-15.84-12.39-21.47a41.62,41.62,0,0,0,7,21.81c7.21,10.7,9.21,18.58,9.41,21.53C425.42,256.67,426,266.9,426.26,270.41Z"/><path class="cls-6" d="M423.38,270.41h.56a13.54,13.54,0,0,0-1.52-8.9c-3.21-5.44-5.71-12.61-10.67-17.36-6.77-6.47-11.47-22.67-11.47-22.67s.21,18.33,5.55,23.68,5.21,3.79,9.35,9.07,5.41,6.76,7,10A14.52,14.52,0,0,1,423.38,270.41Z"/><path class="cls-6" d="M436.53,267.46H417.82a3,3,0,0,0-3,3.62l3.66,19.19a3.05,3.05,0,0,0,3,2.47h11.39a3,3,0,0,0,3-2.47l3.67-19.19A3,3,0,0,0,436.53,267.46Z"/><path class="cls-12" d="M439.48,269.77a3,3,0,0,0-3-2.31H417.82a3.05,3.05,0,0,0-3,2.31Z"/><path class="cls-12" d="M436.53,267.46h-4.15a3,3,0,0,1,3,3.62l-3.67,19.19a3,3,0,0,1-3,2.47h4.15a3,3,0,0,0,3-2.47l3.67-19.19A3,3,0,0,0,436.53,267.46Z"/></g></g></svg>