<svg xmlns="http://www.w3.org/2000/svg" viewBox="0 0 750 500"><defs><style>.cls-1{isolation:isolate;}.cls-2{fill:#f5f5fc;}.cls-13,.cls-23,.cls-3,.cls-30,.cls-32,.cls-4,.cls-6,.cls-7{fill:none;}.cls-3,.cls-4{stroke:#e1e3f4;}.cls-13,.cls-23,.cls-3,.cls-30,.cls-32,.cls-6{stroke-miterlimit:10;}.cls-4,.cls-7{stroke-linecap:round;stroke-linejoin:round;}.cls-5{fill:#ecebf7;}.cls-6,.cls-7{stroke:#d2d4eb;}.cls-8{fill:#a1a1db;}.cls-9{fill:#4c2f91;}.cls-10{fill:#b3b3e2;}.cls-11{fill:#d1d1f2;}.cls-12{fill:#d2d4eb;}.cls-13{stroke:#e7e8f7;}.cls-14{fill:#f25161;}.cls-15{fill:#090f26;}.cls-16{fill:#584eb7;}.cls-17{opacity:0.35;mix-blend-mode:multiply;}.cls-18{fill:#762b90;}.cls-19{fill:#540d6e;}.cls-20{fill:#233b75;}.cls-21{fill:#f2f2f9;}.cls-22{fill:#24215e;}.cls-23{stroke:#bec6ea;}.cls-24{fill:#bec6ea;}.cls-25{fill:#dfe2f4;}.cls-26{fill:#eeedf7;}.cls-27{fill:#878ecc;}.cls-28{fill:#9aa7db;}.cls-29{fill:#b9c1ed;}.cls-30{stroke:#9aa7db;}.cls-31{fill:#1f3263;}.cls-32{stroke:#422889;stroke-width:0.25px;}.cls-33{fill:#aab6e0;}.cls-34{fill:#f5cfc0;}.cls-35{fill:#402479;}</style></defs><g class="cls-1"><g id="OBJECTS"><path class="cls-2" d="M90.59,356.73c-12.09,8.84-34,16.16-52,7.42s-31.24-25-22.86-39.44c5.28-9.07,18.78-10.54,16.75-18.82s-4-23.13,7.15-30.07,8.55-22.52,10.15-27c3-8.34,18.58-11.8,20.81,1.12,2.9,16.93,3.5,22.5,7.69,27.87S96.82,291,92.2,300.35,79,318.06,86.48,326.7,109.41,343,90.59,356.73Z"/><line class="cls-3" x1="60.17" y1="241.29" x2="60.17" y2="400.33"/><path class="cls-4" d="M20.54,335.29s28.94,6.5,39.63,26.6"/><path class="cls-4" d="M25,327.75s26.53,5.48,35.17,22.76"/><path class="cls-4" d="M36.1,314.35s18.16,3.75,24.07,15.58"/><path class="cls-4" d="M36,298.8s18.24,3.77,24.18,15.65"/><path class="cls-4" d="M36,292.31S54.23,296.08,60.17,308"/><path class="cls-4" d="M43.48,280.68s12.59,2.6,16.69,10.79"/><path class="cls-4" d="M50,268.83s7.71,1.6,10.22,6.62"/><path class="cls-4" d="M50,260.85s7.71,1.6,10.22,6.62"/><path class="cls-4" d="M92.59,333.53S69,338.84,60.22,355.26"/><path class="cls-4" d="M83,329.12s-17.21,3.55-22.81,14.76"/><path class="cls-4" d="M84.28,307.72s-18.16,3.75-24.06,15.57"/><path class="cls-4" d="M79.71,295.2s-14.71,3-19.49,12.62"/><path class="cls-4" d="M79.76,288S65,290.89,60.16,300.44"/><path class="cls-4" d="M71.62,276.82s-8.22,1.7-10.89,7.05"/><path class="cls-4" d="M68.48,255.49s-6.23,1.28-8.26,5.35"/><path class="cls-5" d="M146.63,338.41c-13.27,9.7-37.28,17.72-57.07,8.13s-34.27-27.47-25.08-43.26c5.79-9.95,20.6-11.56,18.38-20.64s-4.37-25.37,7.84-33,9.38-24.7,11.13-29.61c3.26-9.15,20.39-12.94,22.83,1.23,3.19,18.57,3.84,24.68,8.43,30.57s20.37,14.45,15.3,24.71-14.5,19.43-6.28,28.9S167.27,323.32,146.63,338.41Z"/><line class="cls-6" x1="113.25" y1="211.77" x2="113.25" y2="400.33"/><path class="cls-7" d="M69.78,314.89s31.74,7.13,43.47,29.18"/><path class="cls-7" d="M74.67,306.62s29.11,6,38.58,25"/><path class="cls-7" d="M86.85,291.92S106.77,296,113.25,309"/><path class="cls-7" d="M86.73,274.87s20,4.13,26.52,17.16"/><path class="cls-7" d="M86.73,267.75s20,4.13,26.52,17.16"/><path class="cls-7" d="M95,255s13.81,2.86,18.3,11.85"/><path class="cls-7" d="M102,242s8.46,1.75,11.21,7.26"/><path class="cls-7" d="M102,233.24s8.46,1.75,11.21,7.26"/><path class="cls-7" d="M148.81,313s-25.93,5.83-35.51,23.83"/><path class="cls-7" d="M138.33,308.12s-18.88,3.9-25,16.19"/><path class="cls-7" d="M139.7,284.65s-19.91,4.11-26.4,17.08"/><path class="cls-7" d="M134.69,270.92s-16.14,3.33-21.39,13.84"/><path class="cls-7" d="M134.75,263s-16.17,3.22-21.51,13.69"/><path class="cls-7" d="M125.82,250.76s-9,1.86-11.95,7.73"/><path class="cls-7" d="M122.37,227.35s-6.84,1.41-9.07,5.87"/><path class="cls-5" d="M451.85,301.49c-21.18,15.48-59.51,28.29-91.09,13s-54.71-43.86-40-69.06c9.24-15.88,32.89-18.45,29.34-32.95s-7-40.5,12.52-52.64,15-39.44,17.76-47.28c5.21-14.59,32.55-20.64,36.44,2,5.09,29.63,6.13,39.39,13.47,48.8,7.15,9.16,32.5,23.06,24.42,39.44s-23.15,31-10,46.13S484.79,277.4,451.85,301.49Z"/><line class="cls-6" x1="398.57" y1="99.34" x2="398.57" y2="400.33"/><path class="cls-7" d="M329.18,264s50.67,11.38,69.39,46.57"/><path class="cls-7" d="M337,250.74s46.46,9.6,61.58,39.86"/><path class="cls-7" d="M356.43,227.28s31.8,6.57,42.14,27.27"/><path class="cls-7" d="M356.24,200.05s31.94,6.6,42.33,27.4"/><path class="cls-7" d="M356.24,188.69s31.94,6.6,42.33,27.4"/><path class="cls-7" d="M369.36,168.31s22,4.56,29.21,18.91"/><path class="cls-7" d="M380.68,147.57s13.5,2.79,17.89,11.59"/><path class="cls-7" d="M380.68,133.6s13.5,2.79,17.89,11.59"/><path class="cls-7" d="M455.34,260.87s-41.39,9.29-56.68,38"/><path class="cls-7" d="M438.6,253.13s-30.14,6.23-39.94,25.85"/><path class="cls-7" d="M440.8,215.66s-31.8,6.57-42.14,27.28"/><path class="cls-7" d="M432.79,193.75s-25.75,5.32-34.13,22.09"/><path class="cls-7" d="M432.88,181.06s-25.79,5.14-34.32,21.85"/><path class="cls-7" d="M418.63,161.56s-14.39,3-19.08,12.35"/><path class="cls-7" d="M413.13,124.2s-10.92,2.26-14.47,9.37"/><rect class="cls-8" x="127.9" y="364.2" width="23.25" height="36.14" transform="translate(279.04 764.53) rotate(180)"/><polygon class="cls-9" points="114.74 357.54 137.99 357.54 151.14 364.2 127.9 364.2 114.74 357.54"/><polygon class="cls-10" points="127.9 400.33 101.59 400.33 101.59 364.2 114.74 357.54 127.9 364.2 127.9 400.33"/><rect class="cls-8" x="108.48" y="384.12" width="10.86" height="16.21" transform="translate(227.82 784.46) rotate(180)"/><rect class="cls-10" x="140.63" y="369.61" width="5.43" height="4.95" transform="translate(286.69 744.17) rotate(180)"/><rect class="cls-10" x="140.63" y="378.27" width="5.43" height="4.95" transform="translate(286.69 761.5) rotate(180)"/><rect class="cls-10" x="131.66" y="386.71" width="5.43" height="4.95" transform="translate(268.76 778.37) rotate(180)"/><rect class="cls-10" x="131.66" y="378.27" width="5.43" height="4.95" transform="translate(268.76 761.5) rotate(180)"/><rect class="cls-8" x="134.67" y="359.19" width="3.75" height="4.04" transform="translate(273.08 722.42) rotate(180)"/><polygon class="cls-11" points="132.79 358.5 136.54 358.5 138.41 359.19 134.67 359.19 132.79 358.5"/><polygon class="cls-10" points="134.67 363.23 132.75 362.55 132.75 358.5 134.67 359.19 134.67 363.23"/><rect class="cls-8" x="188.33" y="342.77" width="28.52" height="57.56" transform="translate(405.18 743.11) rotate(180)"/><polygon class="cls-9" points="172.2 332.17 200.71 332.17 216.85 342.77 188.33 342.77 172.2 332.17"/><polygon class="cls-10" points="188.33 400.33 156.06 400.33 156.06 342.77 172.2 332.17 188.33 342.77 188.33 400.33"/><rect class="cls-8" x="164.51" y="374.51" width="13.32" height="25.82" transform="translate(342.34 774.85) rotate(180)"/><rect class="cls-10" x="203.95" y="351.39" width="6.66" height="7.88" transform="translate(414.57 710.67) rotate(180)"/><rect class="cls-10" x="203.95" y="365.19" width="6.66" height="7.88" transform="translate(414.57 738.27) rotate(180)"/><rect class="cls-10" x="192.95" y="378.63" width="6.66" height="7.88" transform="translate(392.57 765.15) rotate(180)"/><rect class="cls-10" x="192.95" y="365.19" width="6.66" height="7.88" transform="translate(392.57 738.27) rotate(180)"/><rect class="cls-8" x="196.64" y="334.8" width="4.59" height="6.44" transform="translate(397.86 676.03) rotate(180)"/><polygon class="cls-11" points="194.34 333.7 198.93 333.7 201.23 334.8 196.63 334.8 194.34 333.7"/><polygon class="cls-10" points="196.63 341.24 194.29 340.14 194.29 333.7 196.63 334.8 196.63 341.24"/><path class="cls-5" d="M309.06,323.74c-21.25,15.54-59.7,28.38-91.38,13s-54.89-44-40.17-69.28c9.27-15.93,33-18.51,29.43-33.06s-7-40.63,12.56-52.81,15-39.56,17.82-47.42c5.22-14.65,32.65-20.72,36.56,2C279,165.9,280,175.7,287.39,185.13c7.17,9.2,32.6,23.14,24.5,39.57S288.66,255.81,301.83,271,342.11,299.58,309.06,323.74Z"/><line class="cls-3" x1="255.61" y1="120.95" x2="255.61" y2="400.33"/><path class="cls-3" d="M186,286.08s50.84,11.42,69.62,46.72"/><path class="cls-3" d="M193.83,272.84s46.61,9.63,61.78,40"/><path class="cls-3" d="M213.33,249.3s31.9,6.59,42.28,27.36"/><path class="cls-3" d="M213.14,222s32,6.62,42.47,27.48"/><path class="cls-3" d="M213.14,210.59s32,6.62,42.47,27.48"/><path class="cls-3" d="M226.3,190.14s22.11,4.57,29.31,19"/><path class="cls-3" d="M237.66,169.34s13.54,2.8,18,11.62"/><path class="cls-3" d="M237.66,155.32s13.54,2.8,18,11.62"/><path class="cls-3" d="M312.56,283s-41.53,9.33-56.87,38.16"/><path class="cls-3" d="M295.77,275.23s-30.24,6.25-40.08,25.94"/><path class="cls-3" d="M298,237.65s-31.9,6.59-42.28,27.36"/><path class="cls-3" d="M289.93,215.66S264.1,221,255.69,237.82"/><path class="cls-3" d="M290,202.93s-25.88,5.16-34.43,21.93"/><path class="cls-3" d="M275.73,183.37s-14.44,3-19.13,12.39"/><path class="cls-3" d="M270.22,145.89s-11,2.27-14.53,9.4"/><path class="cls-12" d="M131.56,318.47A38.87,38.87,0,0,0,138,325.4c9.07,7.71,21.34,12,33.74,14.05,14.72,2.47,30.23,2.09,44.33-2.37,20-6.32,43.08-18.85,45.9-40.13,1.78-13.46-11.3-21.23-13.16-33.7-1.41-9.46,13.07-20.14,9.57-29.18-4.75-12.25-26.29-15.73-28.36-28.54-1.11-6.91,4.24-13.18,6.88-19.77A27.22,27.22,0,0,0,232.8,159c-5.81-7.4-15.43-12.56-19-21s.05-18.22-3-26.87C208,102.88,198,97.23,188,98.25c-15.25,1.57-16.29,14.91-19.62,25.33-5.49,17.16-15.58,20.88-28.67,33.87-4.42,4.39-6.29,11.05-3.87,16.51,2.19,4.92,7.84,8.28,9.6,13.33,2.48,7.15-3.76,14.36-10.5,18.92s-14.82,8.38-18.44,15.15c-4.49,8.35-.46,18.55,6.28,25.64,4.87,5.12,11.3,9.56,13.34,16,3.48,10.94-7.19,21.2-9.94,32.31C124.23,303.22,126.6,311.55,131.56,318.47Z"/><line class="cls-13" x1="189.92" y1="105.08" x2="189.92" y2="400.33"/><path class="cls-13" d="M249.09,281.83s-40.37,9.83-59.17,47.14"/><path class="cls-13" d="M244.59,266.5s-39.48,9.27-54.67,41.35"/><path class="cls-13" d="M232.25,240.72s-31.94,7-42.33,28.91"/><path class="cls-13" d="M226.49,211.86s-26.13,7-36.57,29"/><path class="cls-13" d="M226.49,199.81s-26.13,7-36.57,29.05"/><path class="cls-13" d="M219.27,178.2s-22.14,4.83-29.35,20.05"/><path class="cls-13" d="M207.9,156.22s-13.57,3-18,12.28"/><path class="cls-13" d="M207.9,141.41s-13.57,3-18,12.28"/><path class="cls-13" d="M142.3,279.28s32.18,6.9,47.54,37.38"/><path class="cls-13" d="M149.71,268.13s30.28,6.6,40.13,27.41"/><path class="cls-13" d="M147.51,228.41s31.93,7,42.33,28.91"/><path class="cls-13" d="M155.55,205.17s25.87,5.64,34.29,23.42"/><path class="cls-13" d="M155.46,191.72s25.91,5.45,34.47,23.17"/><path class="cls-13" d="M169.77,171.05s14.46,3.15,19.16,13.09"/><path class="cls-13" d="M175.3,131.44s11,2.4,14.54,9.94"/><rect class="cls-8" x="661.56" y="364.64" width="25.41" height="35.69"/><polygon class="cls-9" points="701.35 358.06 675.93 358.06 661.56 364.64 686.97 364.64 701.35 358.06"/><polygon class="cls-10" points="686.97 400.33 715.73 400.33 715.73 364.64 701.35 358.06 686.97 364.64 686.97 400.33"/><rect class="cls-8" x="696.32" y="384.32" width="11.87" height="16.01"/><rect class="cls-10" x="667.11" y="369.98" width="5.94" height="4.89"/><rect class="cls-10" x="667.11" y="378.54" width="5.94" height="4.89"/><rect class="cls-10" x="676.91" y="386.88" width="5.94" height="4.89"/><rect class="cls-10" x="676.91" y="378.54" width="5.94" height="4.89"/><rect class="cls-8" x="675.48" y="359.69" width="4.09" height="3.99"/><polygon class="cls-11" points="681.62 359.01 677.52 359.01 675.48 359.69 679.57 359.69 681.62 359.01"/><polygon class="cls-10" points="679.57 363.69 681.66 363.01 681.66 359.01 679.57 359.69 679.57 363.69"/><path class="cls-12" d="M719.72,330.23c-12.57,9.19-35.32,16.79-54.07,7.7s-27.45-26-18.75-41c5.49-9.42,18-13.46,14.45-21.69-5.08-11.66-6.19-21.91,5.38-29.11s8.89-23.41,10.54-28.06c3.09-8.67,19.32-12.26,21.63,1.17,3,17.59,3.64,23.38,8,29s19.29,13.69,14.49,23.41S707.65,290,715.44,299,739.27,315.93,719.72,330.23Z"/><line class="cls-13" x1="688.09" y1="214.09" x2="688.09" y2="400.33"/><path class="cls-13" d="M646.9,307.94s30.08,6.76,41.19,27.65"/><path class="cls-13" d="M651.54,300.11s27.58,5.69,36.55,23.65"/><path class="cls-13" d="M663.08,286.18s18.87,3.9,25,16.19"/><path class="cls-13" d="M663,270s19,3.92,25.12,16.26"/><path class="cls-13" d="M663,263.27s19,3.92,25.12,16.27"/><path class="cls-13" d="M670.75,251.18s13.09,2.7,17.34,11.22"/><path class="cls-13" d="M677.47,238.87s8,1.65,10.62,6.87"/><path class="cls-13" d="M677.47,230.58s8,1.65,10.62,6.87"/><path class="cls-13" d="M721.79,306.12s-24.57,5.51-33.65,22.58"/><path class="cls-13" d="M711.86,301.52s-17.89,3.7-23.72,15.35"/><path class="cls-13" d="M713.16,279.29s-18.87,3.89-25,16.19"/><path class="cls-13" d="M708.4,266.28s-15.28,3.16-20.26,13.11"/><path class="cls-13" d="M708.46,258.74s-15.31,3.06-20.37,13"/><path class="cls-13" d="M700,247.17s-8.54,1.77-11.32,7.33"/><path class="cls-13" d="M696.74,225s-6.49,1.34-8.6,5.56"/><rect class="cls-8" x="611.59" y="339.09" width="32.25" height="61.24"/><polygon class="cls-9" points="662.08 327.8 629.83 327.8 611.59 339.09 643.84 339.09 662.08 327.8"/><polygon class="cls-10" points="643.84 400.33 680.33 400.33 680.33 339.09 662.08 327.8 643.84 339.09 643.84 400.33"/><rect class="cls-8" x="655.71" y="372.86" width="15.07" height="27.47"/><rect class="cls-10" x="618.64" y="348.26" width="7.53" height="8.39"/><rect class="cls-10" x="618.64" y="362.95" width="7.53" height="8.39"/><rect class="cls-10" x="631.08" y="377.24" width="7.53" height="8.39"/><rect class="cls-10" x="631.08" y="362.95" width="7.53" height="8.39"/><rect class="cls-8" x="629.25" y="330.6" width="5.2" height="6.85"/><polygon class="cls-11" points="637.04 329.44 631.85 329.44 629.25 330.6 634.45 330.6 637.04 329.44"/><polygon class="cls-10" points="634.45 337.45 637.1 336.29 637.1 329.44 634.45 330.6 634.45 337.45"/><path class="cls-2" d="M670.1,320.46c-22.16,16.2-62.26,29.6-95.3,13.58s-57.23-45.88-41.89-72.24c9.67-16.61,34.41-19.3,30.69-34.48s-7.29-42.37,13.1-55.07S592.36,131,595.29,122.8c5.44-15.27,34.05-21.6,38.12,2.06,5.32,31,6.41,41.21,14.09,51.06C655,185.5,681.5,200,673,217.17s-24.21,32.45-10.48,48.27S704.56,295.26,670.1,320.46Z"/><line class="cls-3" x1="614.36" y1="108.98" x2="614.36" y2="400.33"/><path class="cls-3" d="M541.76,281.19s53,11.9,72.6,48.72"/><path class="cls-3" d="M549.93,267.37s48.61,10.05,64.43,41.7"/><path class="cls-3" d="M570.27,242.83s33.26,6.87,44.09,28.53"/><path class="cls-3" d="M570.07,214.35s33.42,6.9,44.29,28.66"/><path class="cls-3" d="M570.07,202.46s33.42,6.9,44.29,28.66"/><path class="cls-3" d="M583.79,181.14s23.06,4.76,30.57,19.78"/><path class="cls-3" d="M595.64,159.44s14.12,2.92,18.72,12.12"/><path class="cls-3" d="M595.64,144.83s14.12,2.92,18.72,12.12"/><path class="cls-3" d="M673.74,278s-43.3,9.72-59.29,39.79"/><path class="cls-3" d="M656.24,269.87s-31.53,6.52-41.79,27.05"/><path class="cls-3" d="M658.53,230.68s-33.26,6.87-44.08,28.53"/><path class="cls-3" d="M650.15,207.75s-26.94,5.57-35.7,23.11"/><path class="cls-3" d="M650.25,194.47s-27,5.38-35.91,22.87"/><path class="cls-3" d="M635.34,174.08s-15.06,3.11-20,12.92"/><path class="cls-3" d="M629.59,135s-11.43,2.36-15.14,9.8"/><rect class="cls-12" x="20.54" y="398.73" width="720.95" height="1.61"/><rect class="cls-12" x="6.38" y="398.73" width="9.14" height="1.61"/><path class="cls-14" d="M297.47,318s-2.58,3.92-2.35,5,16.61,2.43,17.49,1.1-9.85-6.13-9.85-6.13"/><path class="cls-15" d="M289.81,187.93s-4.27,8.75-3.53,17.62a25.85,25.85,0,0,0,6.38,14.65l7.22,32.47s-4.39,13.14-4.47,17.26c-.29,16,2.06,48,2.06,48h5.29s14.88-56.51,16.34-66.84S316.22,189,316.22,189"/><path class="cls-14" d="M323.69,317.15s-2.29,4.06-2,5.15,16.75,1.5,17.53.12S329,316.85,329,316.85"/><path class="cls-15" d="M306.54,187.81s-3.62,9-2.23,17.79a26.32,26.32,0,0,0,7.44,14.26l9.57,32s-3.42,13.36-3.19,17.48c.87,15.95,5.56,47.82,5.56,47.82l5.28-.3s10.72-57.23,11.42-67.62-2.06-49.47-9.91-65.83"/><path class="cls-16" d="M319.18,91.15a8.58,8.58,0,0,0-4.57-3,12.57,12.57,0,0,0-12.49,3.34c-2.6,2.9-3.49,5.93-2.75,9.25-5.25-2.34-12.37-1.46-16.12,2.71-3.51,3.9-2.82,8.44-1.37,11.85-8.38-.88-13.88,5.53-14.87,11.63-.38,2.28-.05,6.58,2.75,9.38,2.63,2.62,5,4.61,8.82,5.44-2.12,3.3.08,9.08,3.52,12.56s18.72,4.27,26.84-2c3.53-2.74,5.37-7.23,4.06-11.21a10.35,10.35,0,0,0,10.7-5.25c1.77-3.55,1-7.85-1.43-11.1,1.93-.53,2.8-2.47,3.18-4.21,1.92-8.86-3.21-18.55-12.16-23"/><g class="cls-17"><path class="cls-16" d="M318.61,137.82c1.57-.4,3.12-.83,4.66-1.29a7.17,7.17,0,0,0,.43-.69c1.77-3.55,1-7.85-1.43-11.1,1.93-.53,2.8-2.47,3.18-4.21,1.92-8.86-3.21-18.55-12.16-23l3.66-4-.82-1.35a15.43,15.43,0,0,0-10.06,11.68,14.23,14.23,0,0,0,3.7,11.6c-11.11-1.75-25,5.33-18.48,15.44,1.11,1.73-2.48,3.67-1.61,5.5.74,1.54,2.67,2.33,4.49,2.8C302.11,141.29,310.67,139.87,318.61,137.82Z"/></g><path class="cls-18" d="M288,190.11c.36-10.19,4.2-44.68,9.45-53.41l13.75-14.91H330.1l7.51,2,3,12.94c.63,2.85,3.32,6.11,3.32,11.46,0,3,0,7.16-9.65,11.32-2.23,4.51-5.19,12.54-5,16.62s3.55,10,3.55,13.34S319.94,198.13,309,197,293.29,194.12,288,190.11Z"/><path class="cls-19" d="M294.49,144.71a175.76,175.76,0,0,0-3.67,18.77c3.8-3.51,10.42-12.67,10.29-18.43C300.41,141.25,297.56,142.26,294.49,144.71Z"/><rect class="cls-20" x="207.59" y="166.13" width="392.62" height="234.2" rx="14.62"/><rect class="cls-21" x="230.84" y="176.75" width="346.12" height="212.97"/><path class="cls-22" d="M219.38,295.57a1.84,1.84,0,0,1-1.95-1.71V272.61a2,2,0,0,1,3.89,0v21.25A1.83,1.83,0,0,1,219.38,295.57Z"/><ellipse class="cls-22" cx="588.72" cy="283.23" rx="6.6" ry="5.8"/><path class="cls-14" d="M255.25,197.57h31.19v8.93H266.38v11.21h18.83v8.39H266.38v16.19H255.25Z"/><path class="cls-14" d="M323.64,242.29l-4.5-10.91h-19l-4.37,10.91h-11.6l19-44.72H316l19.31,44.72Zm-20.47-18.94H316l-6.42-15.59Z"/><path class="cls-14" d="M368.56,242.29,349.38,221v21.28H338.25V197.57h11.13v21l19-21h13l-20.34,22.06,20.75,22.66Z"/><path class="cls-14" d="M384.4,197.57h31.94v8.81H395.52v9.29h19.05v8.1H395.52v9.77h20.82v8.75H384.4Z"/><path class="cls-14" d="M450.88,209.32c0,6.12-4.85,10.13-11.47,16.66H429c6.76-7.13,10.65-10.25,10.65-14.08s-3-6.35-7.72-6.35c-4.23,0-8.46,2.51-11.33,5.15v-9.59a23.15,23.15,0,0,1,14.13-4.55C444.87,196.56,450.88,203.09,450.88,209.32Zm-10.58,28c0,3-2.66,5.4-6.14,5.4s-6.15-2.4-6.15-5.4,2.73-5.39,6.15-5.39S440.3,234.25,440.3,237.31Z"/><line class="cls-23" x1="253.5" y1="248.14" x2="453.33" y2="248.14"/><line class="cls-23" x1="253.5" y1="191.89" x2="453.33" y2="191.89"/><rect class="cls-24" x="253.71" y="256.32" width="199.61" height="8.61"/><rect class="cls-25" x="253.71" y="273.25" width="199.61" height="4.76"/><rect class="cls-25" x="253.71" y="281.43" width="56.1" height="4.76"/><rect class="cls-25" x="314.08" y="281.43" width="139.25" height="4.76"/><rect class="cls-25" x="253.71" y="289.6" width="199.61" height="4.76"/><rect class="cls-25" x="375.06" y="297.78" width="78.27" height="4.76"/><rect class="cls-25" x="253.71" y="297.78" width="114.34" height="4.76"/><rect class="cls-25" x="253.71" y="305.96" width="199.61" height="4.76"/><rect class="cls-25" x="253.71" y="314.13" width="199.61" height="4.76"/><rect class="cls-25" x="335.57" y="322.31" width="117.76" height="4.76"/><rect class="cls-25" x="335.57" y="330.48" width="73.72" height="4.76"/><rect class="cls-25" x="414.19" y="330.48" width="39.13" height="4.76"/><rect class="cls-25" x="335.57" y="338.66" width="23.43" height="4.76"/><rect class="cls-25" x="363.06" y="338.66" width="90.27" height="4.76"/><rect class="cls-25" x="335.57" y="346.84" width="117.76" height="4.76"/><rect class="cls-25" x="335.57" y="355.01" width="117.76" height="4.76"/><rect class="cls-25" x="335.57" y="363.19" width="93.39" height="4.76"/><rect class="cls-25" x="433.76" y="363.19" width="19.57" height="4.76" transform="translate(887.09 731.14) rotate(180)"/><rect class="cls-25" x="335.57" y="371.37" width="78.62" height="4.76"/><rect class="cls-25" x="468.01" y="191.49" width="87.87" height="4.76"/><rect class="cls-25" x="468.01" y="199.67" width="24.7" height="4.76"/><rect class="cls-25" x="494.59" y="199.67" width="61.3" height="4.76"/><rect class="cls-25" x="468.01" y="207.84" width="87.87" height="4.76"/><rect class="cls-25" x="521.43" y="216.02" width="34.46" height="4.76"/><rect class="cls-25" x="468.01" y="216.02" width="50.34" height="4.76"/><rect class="cls-25" x="468.01" y="224.2" width="87.87" height="4.76"/><text/><rect class="cls-25" x="468.01" y="240.55" width="87.87" height="4.76"/><rect class="cls-25" x="468.01" y="248.72" width="87.87" height="4.76"/><rect class="cls-25" x="468.01" y="256.9" width="87.87" height="4.76"/><rect class="cls-25" x="468.01" y="265.08" width="87.87" height="4.76"/><rect class="cls-25" x="468.01" y="273.25" width="23.06" height="4.76"/><rect class="cls-25" x="494.88" y="273.25" width="61.01" height="4.76"/><rect class="cls-25" x="468.01" y="281.43" width="87.87" height="4.76"/><rect class="cls-25" x="468.01" y="289.6" width="87.87" height="4.76"/><rect class="cls-25" x="468.01" y="297.78" width="87.87" height="4.76"/><rect class="cls-25" x="468.01" y="305.96" width="87.87" height="4.76"/><rect class="cls-25" x="468.01" y="314.13" width="62.53" height="4.76"/><rect class="cls-25" x="535.22" y="314.13" width="20.67" height="4.76"/><rect class="cls-25" x="468.01" y="322.31" width="87.87" height="4.76"/><rect class="cls-25" x="468.01" y="330.48" width="87.87" height="4.76"/><rect class="cls-25" x="468.01" y="338.66" width="87.87" height="4.76"/><rect class="cls-25" x="468.01" y="346.84" width="87.87" height="4.76"/><rect class="cls-25" x="468.01" y="355.01" width="87.87" height="4.76"/><rect class="cls-25" x="468.01" y="363.19" width="87.87" height="4.76"/><rect class="cls-25" x="468.01" y="371.37" width="57.22" height="4.76"/><rect class="cls-25" x="253.71" y="323.96" width="74.52" height="52.16"/><polygon class="cls-26" points="282.64 337.47 262.96 370.75 302.31 370.75 282.64 337.47"/><polygon class="cls-26" points="303.64 348.41 298.91 356.41 307.39 370.75 316.85 370.75 303.64 348.41"/><path class="cls-26" d="M315,335.55a4.14,4.14,0,1,1-4.11-3.61A3.88,3.88,0,0,1,315,335.55Z"/><path class="cls-27" d="M258.87,170.18a8.13,8.13,0,0,0,5.43-.75,4.89,4.89,0,0,0,2.75-4.36c-.33-4-5.56-9.28-13.28-9.93"/><path class="cls-27" d="M251.22,155.79a24,24,0,0,0-5.28,6.45,6.31,6.31,0,0,0-1,3c0,1.9,1.59,3.51,3.43,4.25a16.46,16.46,0,0,0,5.91.81"/><path class="cls-28" d="M243.71,149.48c-.27-.18-.54-.37-.79-.57-1.08-.88.36-1.47,1.23-1.21a15.38,15.38,0,0,1,3,1.64s-2.43-6.57,2-.69a6.38,6.38,0,0,0,.2-2.36.5.5,0,0,1,.12-.39c.17-.16.46-.05.66.08a5.17,5.17,0,0,1,2,3.29,16.88,16.88,0,0,0,3.1,4.8,33.65,33.65,0,0,1,4.57,4c2.3,2.43,5.23,6.19,3.78,9.68-.85,2.05-3.67,4.23-3.5,5.75s-.12,4-2.47,4.73c-2,.63-4.5-.66-4.74-2.65a3.62,3.62,0,0,1,.61-2.44c-.56-2.9-2.53-2.21-4.38-5.45-1.72-3-.81-6.43.05-9.56C249.48,157.16,247.57,152.14,243.71,149.48Z"/><path class="cls-28" d="M256.75,178.13s-.44,1.07-.7,1.05-.63-1.51-.63-1.51"/><ellipse class="cls-5" cx="451.68" cy="431.31" rx="23.65" ry="4.98"/><path class="cls-29" d="M438,411.48c-.34-1.83,1.36-4.06,4.4-2.68,1.35.61,1.65,2.12,2.06,3.27a25.29,25.29,0,0,0,4,7.19c2.73,3.27,11.43,3.53,11.79,4s-1.43,1.88-2.72,2.22c1.59,0,4.55.65,4.55,1.15s-2.17.64-3.26,1c1.11.88,2.89.62,2.62,1.41s-12,1.95-17.41.36c-4.11-1.2-8.6-3.83-8.24-8.84C436,417.42,438.58,414.55,438,411.48Z"/><path class="cls-29" d="M439.53,409.72l-1.75-.51a1,1,0,0,0,.08.4,4.62,4.62,0,0,0,.56,1"/><path class="cls-28" d="M446.35,433a3.52,3.52,0,0,1,1.34-.33,3.79,3.79,0,0,0,0-.51c0-.84,0-1.68.05-2.53,0-.26.42-.25.45,0,.13.93.25,3,.26,3.06a2.77,2.77,0,0,1-.47,2.15.24.24,0,0,1-.4-.18,5.8,5.8,0,0,1,.12-1,5.73,5.73,0,0,1-.86.43c-.22.08-.46-.14-.27-.31s.54-.33.77-.53a.94.94,0,0,0,.17-.18,2.91,2.91,0,0,1-1.13.18C446.31,433.2,446.25,433,446.35,433Z"/><path class="cls-28" d="M440.8,432a3.65,3.65,0,0,1,1.39-.14,4,4,0,0,0,.1-.5c.16-.84.31-1.66.51-2.49a.23.23,0,0,1,.45.06c0,.93-.3,3-.3,3.06a2.86,2.86,0,0,1-.85,2.05.23.23,0,0,1-.37-.23,4.75,4.75,0,0,1,.31-1,5.23,5.23,0,0,1-.93.3c-.23.05-.43-.2-.21-.34s.59-.25.86-.42a1,1,0,0,0,.19-.15,3.13,3.13,0,0,1-1.14,0C440.72,432.17,440.69,432,440.8,432Z"/><path class="cls-28" d="M438.93,419.49a3,3,0,0,1,2.62-1.67,4.26,4.26,0,0,1,3.85,1.71,12.28,12.28,0,0,0,4,3.52c.89.5,2.66,1.05,2.77,2.12-.75.15-2-.2-2.61.2.35.69,1.22.89,1.74,1.44,1.05,1.12-.75,1.18-1.77,1.26a11.15,11.15,0,0,1-2.71-.2,12.85,12.85,0,0,1-6-2.88C439.26,423.64,438.1,421.41,438.93,419.49Z"/><path class="cls-28" d="M527.57,150.59c-4.15,1.63-3.79,1.31-5.64,5-1.86-3.65-1.49-3.33-5.64-5,4.15-1.63,3.78-1.31,5.64-5C523.78,149.28,523.42,149,527.57,150.59Z"/><path class="cls-28" d="M146.27,238.46c-4.15,1.63-3.78,1.31-5.64,4.95-1.86-3.64-1.49-3.32-5.64-4.95,4.15-1.63,3.78-1.31,5.64-5C142.49,237.15,142.12,236.83,146.27,238.46Z"/><path class="cls-28" d="M687.26,178.47c-4.15,1.63-3.79,1.31-5.64,4.95-1.86-3.64-1.5-3.32-5.65-4.95,4.15-1.63,3.79-1.31,5.65-5C683.47,177.16,683.11,176.84,687.26,178.47Z"/><path class="cls-28" d="M657.18,225c-4.14,1.63-3.78,1.31-5.64,4.95-1.85-3.64-1.49-3.32-5.64-4.95,4.15-1.63,3.79-1.31,5.64-5C653.4,223.69,653,223.37,657.18,225Z"/><path class="cls-28" d="M668.89,359.35c-4.15,1.63-3.79,1.32-5.65,5-1.85-3.64-1.49-3.33-5.64-5,4.15-1.63,3.79-1.31,5.64-5C665.1,358,664.74,357.72,668.89,359.35Z"/><path class="cls-28" d="M320.76,59.93c-4.15,1.63-3.79,1.31-5.64,5-1.86-3.65-1.5-3.33-5.65-5,4.15-1.63,3.79-1.31,5.65-5C317,58.62,316.61,58.3,320.76,59.93Z"/><path class="cls-30" d="M416.41,116.23a3.31,3.31,0,1,1-3.28-2.88A3.1,3.1,0,0,1,416.41,116.23Z"/><path class="cls-30" d="M590.56,113.35a3.3,3.3,0,1,1-3.27-2.88A3.09,3.09,0,0,1,590.56,113.35Z"/><path class="cls-30" d="M725.07,350.86a3.31,3.31,0,1,1-3.28-2.88A3.1,3.1,0,0,1,725.07,350.86Z"/><path class="cls-30" d="M265.38,101.28a3.31,3.31,0,1,1-3.28-2.88A3.1,3.1,0,0,1,265.38,101.28Z"/><path class="cls-30" d="M89.81,350a3.31,3.31,0,1,1-3.28-2.88A3.1,3.1,0,0,1,89.81,350Z"/><ellipse class="cls-5" cx="568.53" cy="458.72" rx="110.87" ry="14.69"/><polygon class="cls-29" points="582.78 404.91 562.73 460.92 564.63 460.92 587.28 404.91 582.78 404.91"/><polygon class="cls-29" points="614.33 404.91 634.38 460.92 632.48 460.92 609.82 404.91 614.33 404.91"/><polygon class="cls-29" points="599.46 404.91 604.19 460.92 602.29 460.92 594.96 404.91 599.46 404.91"/><path class="cls-25" d="M592.45,387.12S550.92,392,550.92,400.5s22.29,8.3,45.89,8.51c26.09.22,43.33-7.56,49.3-24.51,7.83-22.23,2.61-65-14.3-66.49C602.36,315.44,592.45,387.12,592.45,387.12Z"/><path class="cls-31" d="M509.91,454.66s-7.85,2.8-7.92,5c0,.72,5,.44,9.06-.54.65-.16,2-.31,2-1.82a5.08,5.08,0,0,0-.8-2.57"/><path class="cls-16" d="M591.26,371.59s-45.45,4.4-57.46,12.6c-5.15,3.51-12,22.64-17.42,40.12a290.58,290.58,0,0,0-7.56,30.77l4,.64s24.25-30.17,27.6-35.83c8.2-13.84,5.36-26,5.36-26s42.54,11.55,61.67,5.86c11.43-3.4,13.91-17.43,8.21-25.81"/><path class="cls-32" d="M511.4,455.49s21.88-27.39,28.54-44.26c3.29-8.34,2.21-18.3,5.08-19.44s39.69,3.76,44.83,4.48,19,2.58,22.78-9.27"/><g class="cls-17"><path class="cls-16" d="M607.49,399.75a15.26,15.26,0,0,0,5.55-3,51.08,51.08,0,0,0-6.75-16,56.32,56.32,0,0,0-6.26-8.35l-8.77-.84s-45.45,4.4-57.46,12.6c-2.4,1.63-5.17,6.66-8,13.32a7.85,7.85,0,0,1,7.43.17c4.48,2.74,8.22,7.38,8.08,15.77,0,1.69-.09,3.39-.11,5.08,7.23-13.26,4.61-24.64,4.61-24.64S588.36,405.44,607.49,399.75Z"/></g><path class="cls-31" d="M470.35,415.66s-7.11-3.17-8.67-1.46c-.52.56,3.44,3.29,7.09,5.33a2.21,2.21,0,0,0,2.89-.36,2.36,2.36,0,0,0,.55-2.2"/><path class="cls-16" d="M601.58,376.49s-46.3-15.08-71.09-6.12-60.14,45.29-60.14,45.29a2.92,2.92,0,0,0,2,2.61c1.07-.51,37.72-13.38,47.55-20.42s13.93-13.66,13.93-13.66,43.42,22.38,71.81,17.15c15.38-2.84,18.1-14.77,18.1-14.77"/><path class="cls-32" d="M471.75,417.48s33.3-12.64,44.18-20.17,14-13.8,17.7-15.34c2.39-1,25.76,10.32,44,13.36s34-.89,37.19-15.21"/><path class="cls-32" d="M603.66,381.58s-2,4-1.29,6.21a9.57,9.57,0,0,0,3.28,4.67"/><path class="cls-32" d="M602.21,381.59s-1.58,4.48-.87,6.69a9.43,9.43,0,0,0,3.58,4.72"/><polygon class="cls-24" points="558.63 300.02 570 351.97 535.37 359.69 521.93 312.37 558.63 300.02"/><polygon class="cls-33" points="526.16 314.07 555.92 304.79 565.81 349.61 538.01 355.8 526.16 314.07"/><polygon class="cls-24" points="530.9 322.05 530.41 320.56 558.92 313.37 559.41 314.86 530.9 322.05"/><path class="cls-34" d="M566,332.8c0-.14-3-1.37-3.28-2.55s-.51-2.45-.51-2.45-1.48-2.65-.85-3,2.7,2.23,2.7,2.23l-.12-2.78-.69-3.15s2.32,2.44,2.64,4.55a37.34,37.34,0,0,0,1.43,5.22l5.74,3.77-3.88,1Z"/><path class="cls-35" d="M619.54,325.63c-4.38-.52-8.53,3.21-15.06,10.59a104.4,104.4,0,0,1-9.26,9.27L569.13,332l-1.51,2.22s24.9,26,31.19,24.54,18.54-6.6,25.15-16.84C627.84,335.92,629.65,326.83,619.54,325.63Z"/><path class="cls-9" d="M625.08,324.57c13.78,10.51,16.26,35.45,8.09,52.7-5.64,11.9-12.72,18.52-20.42,22.08-4.17-8.64-15.42-19.22-25.71-24.44-4.72-2.39-14-4.47-14-4.47s16.94-4.86,21-18.31c-2.45-5.66-2.31-11.62,4.46-16.52,2.81-2,6.56-4.71,7.9-5.75C614.5,323.6,623,323,625.08,324.57Z"/><path class="cls-34" d="M612.45,301.23c-4.41,3.55-6.16,11.95-6.19,13.31,0,1.91,1.92,3.37,4.48,3.56a16.12,16.12,0,0,1,4.06.75,10.6,10.6,0,0,1,0,4.12c-.49,1.67-4.28,4.5-4.28,4.5a65.23,65.23,0,0,0,9-.82c3.54-.83,4.39-2,4.39-2l-2.26-2.38s-.64-4.68.85-6.18,5.26-5.61,4.7-9.37C626.11,299.49,618.43,296.42,612.45,301.23Z"/><path class="cls-34" d="M608.8,307.07c-.53.22-3.38,2.5-3.36,3.09s2.61.87,2.61.87"/><path class="cls-16" d="M619.26,297.19c-2.54-.89-6.76.16-8.38.83a8,8,0,0,0-3.82,2.91,3.25,3.25,0,0,0-.56,2.43l5.45,1.25a.93.93,0,0,0,1.18-.41,4.3,4.3,0,0,1,3-1.38,4.46,4.46,0,0,0-1.63,3c0,.37,2.45,1.05,3.69,1.53s3.82,2.56,4.9,1.69c.66-.52.19-2.29.37-3.06a8.7,8.7,0,0,0,.31-3.88,3.58,3.58,0,0,0-2.79-2.77"/><path class="cls-16" d="M621.87,305.07c-.38.29-.63,1-.93,1.4a9.76,9.76,0,0,0-1.81,2.7,1.05,1.05,0,0,0,.38,1.07c.43.27.4-.42,1.17-.49a1.67,1.67,0,0,1,1.61,1.74c.07.78-.95,3-2.33,3a.94.94,0,0,0-.79.31.87.87,0,0,0,.07.84c.19.28,1.13,2.1,2.49,2a5.38,5.38,0,0,0,2.31-.15,11.73,11.73,0,0,0,3.73-1.3c4.51-2.28,7.17-8,5.61-12.61-1.68-4.87-10.92-12-19.42-6"/><path class="cls-16" d="M625.52,298.15c-1-.43-.6-2.32-.23-3a4.76,4.76,0,0,1,4-2.13c3,0,5.75,3.12,4,5.58-1.31,1.87-3.45,1.63-5.73,1.5"/><polygon class="cls-25" points="551.76 311.03 563.41 366.68 535.37 359.69 521.93 312.37 551.76 311.03"/><polygon class="cls-24" points="549.52 315.65 526.84 316.27 527.61 319.82 550.28 319.2 549.52 315.65"/><polygon class="cls-24" points="528.65 322.96 550.96 321.98 559.08 361.9 537.12 357.06 528.65 322.96"/><polygon class="cls-25" points="550.06 362.75 541 321.02 542.74 320.73 551.79 362.46 550.06 362.75"/><polygon class="cls-25" points="547.11 346.25 532.55 344.85 532.75 343.31 547.3 344.7 547.11 346.25"/><path class="cls-34" d="M567,349.61l-5.06-2.15s-1-4.3-1.68-4.9a7.91,7.91,0,0,0-2.07-1.08l.22,1c-.59.56-2.8.13-3.15-.46s-3.18-4-3.54-2.81.34,4.09,1.2,5.44,2.69,2.17,4.16,2.93c.72.38,7.49,4.5,7.49,4.5"/><path class="cls-35" d="M620.33,331.55c-4.37-.52-12.3,2.64-13.66,9.84-1.08,5.69-9.85,20.48-9.85,20.48l-32-13-1.1,3.12s31.27,24.34,37.56,22.9,24.6-16.52,27.84-27.94C630.79,341.17,630.45,332.75,620.33,331.55Z"/><path class="cls-34" d="M316.22,181.06s3.93,1.46,4.38,1.73,2.54,2,3.3,2.68,1.83,4.39,1.67,5.48c-.08.57-.83,3.84-1.59,3.84-1.26,0-2.58-4.15-2.58-4.15s-3.54-2.83-3.22-5.71l-5.57-1.38"/><path class="cls-18" d="M313.56,121.57s-14.27.05-23.5,8.82c-6.56,6.24-21,32.33-17.16,38.75,7.43,12.5,43.57,15.36,43.57,15.36l1.5-2.86-33-15.51s17.9-16.55,17.49-27.43"/><path class="cls-34" d="M323.49,167.32a45.19,45.19,0,0,0-4.6,1,17.83,17.83,0,0,0-3.3,2.69,8.21,8.21,0,0,0-1,4.43c.08.57,1,3.71,1.76,3.71,1.26,0,2-3.88,2-3.88a5.71,5.71,0,0,0,2.85-4.19c.91-.22,6.78-.62,6.78-.62"/><path class="cls-18" d="M331.49,122.1s9.34,1.33,16.46,7.62c10.5,9.26,16.86,32.85,14,36.41s-39.74,5.52-39.74,5.52v-4.19l24.47-8.09-9.54-18.15"/><path class="cls-19" d="M343.63,145.05a15.78,15.78,0,0,1,.33,3.11,9.54,9.54,0,0,1-.81,4.49l3.53,6.72-7.76,2.56c4.86-.52,11-1.38,11.74-2.45C351.69,158,345.56,148.09,343.63,145.05Z"/><path class="cls-16" d="M337.68,101.28a16.49,16.49,0,0,1,.69,4.66,5.84,5.84,0,0,1-2,4.26,6.59,6.59,0,0,1-2.25,1.16c-1.44.45-3.28.42-4.26-.62a3.38,3.38,0,0,1-.78-1.78A8.82,8.82,0,0,1,329,107"/><path class="cls-34" d="M321.61,95.36a8.75,8.75,0,0,0-6.18,6.24,13.42,13.42,0,0,0,1,8.5c1.34,3.18,3.56,6.27,7,7.77s8.3.81,10.22-2.13a10.22,10.22,0,0,0,1.1-2.72l.81-2.76a14.76,14.76,0,0,0,.89-6.34,13.63,13.63,0,0,0-1.57-4.09,10.26,10.26,0,0,0-2.83-3.68,5,5,0,0,0-4.74-.73"/><path class="cls-34" d="M326.65,115.25v6.14l4.84.71s-1.21,7.38-11.52,7.39c-8.84,0-10.93-7.39-10.93-7.39l8.38-1.55,1.59-8.37"/><path class="cls-16" d="M333.81,89.5a13.48,13.48,0,0,1-4.88.65c-1.56-.17-3.09-.57-4.66-.65a12,12,0,0,0-8.14,2.72,15.07,15.07,0,0,0-5.74,9c-.57,3.48,1.21,6.92,3.47,9.7a5,5,0,0,0,3.66,1.29,4.08,4.08,0,0,0,1.13-2c-2-.92-2.22-3.35-1.63-5.24.18-.59.36-1.21,1.19-1.23,2.13-.06,1.59,2.84,2.34,2.63s.85-1.64,1.44-1.7a1.61,1.61,0,0,0,1.29-1.25,11.86,11.86,0,0,1,.42-1.76c2.7,1.84,6.06,3,9.37,2.32.77-.17,2-1.13,1.91-1.82a7.44,7.44,0,0,0,3.94,1.58c5.17-.29,5.47-3.29,6.36-5.82a6,6,0,0,0-2.67-7,12.14,12.14,0,0,0-3.74-1.31,10.59,10.59,0,0,0-4.08-.26C334.46,89.35,334.13,89.42,333.81,89.5Z"/></g></g></svg>