<svg xmlns="http://www.w3.org/2000/svg" viewBox="0 0 221.73 180.39"><defs><style>.cls-1{isolation:isolate;}.cls-2{fill:#ecebf7;}.cls-3{fill:#b9c1ed;}.cls-4{fill:#dfe2f4;}.cls-5{fill:#1f3263;}.cls-6{fill:#584eb7;}.cls-7{fill:none;stroke:#422889;stroke-miterlimit:10;stroke-width:0.25px;}.cls-8{opacity:0.35;mix-blend-mode:multiply;}.cls-9{fill:#bec6ea;}.cls-10{fill:#aab6e0;}.cls-11{fill:#f5cfc0;}.cls-12{fill:#402479;}.cls-13{fill:#4c2f91;}</style></defs><g class="cls-1"><g id="Layer_2" data-name="Layer 2"><g id="OBJECTS"><ellipse class="cls-2" cx="110.87" cy="165.7" rx="110.87" ry="14.69"/><polygon class="cls-3" points="125.12 111.88 105.06 167.89 106.96 167.89 129.62 111.88 125.12 111.88"/><polygon class="cls-3" points="156.67 111.88 176.72 167.89 174.82 167.89 152.16 111.88 156.67 111.88"/><polygon class="cls-3" points="141.8 111.88 146.52 167.89 144.62 167.89 137.29 111.88 141.8 111.88"/><path class="cls-4" d="M134.79,94.09S93.26,99,93.26,107.47s22.28,8.31,45.89,8.51c26.09.22,43.33-7.56,49.3-24.51,7.82-22.23,2.6-65-14.3-66.48C144.7,22.41,134.79,94.09,134.79,94.09Z"/><path class="cls-5" d="M52.25,161.63s-7.85,2.8-7.92,5c0,.72,5,.44,9.05-.54.65-.16,2-.3,2-1.82a5.11,5.11,0,0,0-.79-2.57"/><path class="cls-6" d="M133.59,78.56S88.15,83,76.13,91.16c-5.14,3.51-12,22.64-17.41,40.13a289.42,289.42,0,0,0-7.57,30.76l4,.65s24.26-30.17,27.61-35.84c8.19-13.84,5.36-26,5.36-26s42.54,11.55,61.66,5.86c11.44-3.4,13.92-17.43,8.22-25.81"/><path class="cls-7" d="M53.74,162.46s21.88-27.39,28.53-44.26c3.29-8.34,2.22-18.3,5.09-19.44s39.69,3.76,44.83,4.49,19,2.57,22.78-9.28"/><g class="cls-8"><path class="cls-6" d="M149.82,106.72a15.08,15.08,0,0,0,5.56-3,51,51,0,0,0-6.76-16,56.07,56.07,0,0,0-6.25-8.35l-8.78-.84S88.15,83,76.13,91.16c-2.39,1.64-5.16,6.66-8,13.32a7.83,7.83,0,0,1,7.42.17c4.48,2.74,8.23,7.38,8.09,15.78,0,1.68-.09,3.38-.12,5.07,7.24-13.26,4.62-24.64,4.62-24.64S130.7,112.41,149.82,106.72Z"/></g><path class="cls-5" d="M12.69,122.63S5.58,119.46,4,121.17c-.51.56,3.45,3.29,7.1,5.33a2.19,2.19,0,0,0,2.88-.36,2.33,2.33,0,0,0,.55-2.2"/><path class="cls-6" d="M143.92,83.46s-46.31-15.08-71.1-6.12-60.13,45.29-60.13,45.29a2.91,2.91,0,0,0,2,2.61c1.08-.51,37.73-13.38,47.56-20.42S76.13,91.16,76.13,91.16s43.42,22.38,71.82,17.15c15.38-2.84,18.1-14.77,18.1-14.77"/><path class="cls-7" d="M14.09,124.45s33.3-12.64,44.18-20.17,14-13.8,17.69-15.34c2.4-1,25.77,10.33,44,13.36s34-.89,37.19-15.21"/><path class="cls-7" d="M146,88.55s-2,4-1.29,6.21A9.57,9.57,0,0,0,148,99.43"/><path class="cls-7" d="M144.55,88.56s-1.59,4.49-.88,6.69a9.48,9.48,0,0,0,3.59,4.72"/><polygon class="cls-9" points="100.96 7 112.34 58.94 77.7 66.66 64.27 19.34 100.96 7"/><polygon class="cls-10" points="68.5 21.05 98.26 11.76 108.14 56.58 80.35 62.77 68.5 21.05"/><polygon class="cls-9" points="73.23 29.03 72.75 27.54 101.26 20.34 101.75 21.83 73.23 29.03"/><path class="cls-11" d="M108.32,39.77c0-.14-3-1.36-3.27-2.55s-.51-2.45-.51-2.45-1.49-2.65-.85-3,2.7,2.24,2.7,2.24l-.12-2.79-.69-3.15s2.32,2.45,2.64,4.55a35.91,35.91,0,0,0,1.43,5.22l5.73,3.77-3.87,1Z"/><path class="cls-12" d="M161.88,32.6c-4.38-.51-8.53,3.22-15.06,10.59a104.32,104.32,0,0,1-9.26,9.27L111.47,39,110,41.21s24.9,26,31.19,24.54,18.54-6.6,25.14-16.84C170.18,42.89,172,33.8,161.88,32.6Z"/><path class="cls-13" d="M167.42,31.54c13.78,10.51,16.25,35.45,8.09,52.7-5.64,11.9-12.72,18.52-20.42,22.08-4.17-8.64-15.42-19.21-25.72-24.43-4.71-2.4-14-4.48-14-4.48s16.94-4.86,21-18.3c-2.45-5.67-2.3-11.63,4.46-16.53,2.82-2,6.57-4.71,7.91-5.75C156.84,30.57,165.38,30,167.42,31.54Z"/><path class="cls-11" d="M154.79,8.2c-4.41,3.55-6.16,12-6.19,13.31-.06,1.91,1.92,3.38,4.48,3.56a16,16,0,0,1,4,.75,10.44,10.44,0,0,1,0,4.13c-.49,1.66-4.28,4.5-4.28,4.5a65.88,65.88,0,0,0,9-.83c3.54-.82,4.38-2,4.38-2L164,29.2s-.64-4.69.85-6.19,5.26-5.61,4.7-9.37C168.45,6.46,160.76,3.39,154.79,8.2Z"/><path class="cls-11" d="M151.13,14c-.52.22-3.37,2.5-3.35,3.09s2.6.87,2.6.87"/><path class="cls-6" d="M161.6,4.17c-2.54-.9-6.76.15-8.38.82A8,8,0,0,0,149.4,7.9a3.25,3.25,0,0,0-.57,2.43l5.46,1.25a1.28,1.28,0,0,0,.64,0,1.25,1.25,0,0,0,.54-.45,4.3,4.3,0,0,1,3-1.38,4.42,4.42,0,0,0-1.63,3c0,.37,2.45,1.05,3.69,1.53s3.82,2.56,4.9,1.7c.66-.53.19-2.3.37-3.07A8.7,8.7,0,0,0,166.11,9a3.56,3.56,0,0,0-2.79-2.76"/><path class="cls-6" d="M164.21,12c-.38.29-.64,1.05-.93,1.41a9.54,9.54,0,0,0-1.82,2.69,1.08,1.08,0,0,0,.39,1.07c.43.27.4-.42,1.16-.49a1.68,1.68,0,0,1,1.62,1.75c.07.77-.95,3-2.33,3a.93.93,0,0,0-.79.31.89.89,0,0,0,.07.85c.19.28,1.13,2.09,2.49,2a5.33,5.33,0,0,0,2.3-.15,11.55,11.55,0,0,0,3.74-1.3c4.51-2.28,7.17-8,5.6-12.61-1.67-4.86-10.92-12-19.41-6"/><path class="cls-6" d="M167.86,5.12c-1.05-.43-.6-2.32-.23-3a4.76,4.76,0,0,1,4-2.13c3,0,5.75,3.12,4,5.59-1.31,1.86-3.46,1.62-5.73,1.49"/><polygon class="cls-4" points="94.1 18 105.75 73.66 77.7 66.66 64.27 19.34 94.1 18"/><polygon class="cls-9" points="91.86 22.62 69.18 23.24 69.94 26.79 92.62 26.18 91.86 22.62"/><polygon class="cls-9" points="70.99 29.93 93.3 28.95 101.41 68.87 79.45 64.03 70.99 29.93"/><polygon class="cls-4" points="92.39 69.72 83.34 27.99 85.08 27.7 94.13 69.43 92.39 69.72"/><polygon class="cls-4" points="89.45 53.22 74.89 51.82 75.09 50.28 89.64 51.68 89.45 53.22"/><path class="cls-11" d="M109.29,56.59l-5.06-2.16s-1-4.3-1.68-4.9a7.91,7.91,0,0,0-2.08-1.08l.22,1c-.58.56-2.8.14-3.14-.46s-3.18-4-3.54-2.8.33,4.09,1.2,5.43,2.69,2.17,4.16,2.94c.72.37,7.49,4.5,7.49,4.5"/><path class="cls-12" d="M162.67,38.53c-4.37-.52-12.3,2.63-13.66,9.83-1.09,5.7-9.85,20.48-9.85,20.48l-32-13-1.09,3.12s31.27,24.34,37.56,22.9,24.59-16.52,27.84-27.94C173.12,48.14,172.79,39.72,162.67,38.53Z"/></g></g></g></svg>